<?xml version="1.0" encoding="utf-8"?>
<!-- Generator: Adobe Illustrator 22.0.1, SVG Export Plug-In . SVG Version: 6.00 Build 0)  -->
<svg version="1.1" id="Слой_1" xmlns="http://www.w3.org/2000/svg" xmlns:xlink="http://www.w3.org/1999/xlink" x="0px" y="0px"
	 viewBox="0 0 230 210" style="enable-background:new 0 0 230 210;" xml:space="preserve">
<style type="text/css">
	.st0{fill:none;stroke:#000000;stroke-width:3.8023;stroke-linejoin:round;stroke-miterlimit:10;}
	.st1{fill:none;stroke:#F7794D;stroke-width:3.8023;stroke-linecap:round;stroke-miterlimit:10;}
</style>
<path class="st0" d="M80,95.9H40c-6.9,0-12.5,5.6-12.5,12.5v46.4c0,6.9,5.6,12.5,12.5,12.5h6.7v16l16-16h60
	c6.9,0,12.5-5.6,12.5-12.5v-7.2"/>
<path class="st0" d="M188.9,64.9h-95c-8,0-14.4,6.4-14.4,14.4v53.3c0,8,6.4,14.4,14.4,14.4h68.9l18.4,18.4v-18.4h7.7
	c8,0,14.4-6.4,14.4-14.4V79.3C203.3,71.4,196.9,64.9,188.9,64.9z"/>
<path class="st1" d="M166.7,96.6c0,13.2-10.7,24-24,24s-24-10.7-24-24"/>
<line class="st1" x1="90.6" y1="50.2" x2="82.7" y2="26.9"/>
<line class="st1" x1="76.2" y1="56.3" x2="56.8" y2="27.6"/>
<line class="st1" x1="67.9" y1="66.5" x2="46.6" y2="54.2"/>
</svg>
