<?xml version="1.0" encoding="utf-8"?>
<!-- Generator: Adobe Illustrator 22.0.1, SVG Export Plug-In . SVG Version: 6.00 Build 0)  -->
<svg version="1.1" id="Слой_1" xmlns="http://www.w3.org/2000/svg" xmlns:xlink="http://www.w3.org/1999/xlink" x="0px" y="0px"
	 viewBox="0 0 230 210" style="enable-background:new 0 0 230 210;" xml:space="preserve">
<style type="text/css">
	.st0{fill:none;stroke:#000000;stroke-width:3.8023;stroke-linecap:round;stroke-linejoin:round;stroke-miterlimit:10;}
	.st1{fill:none;stroke:#F7794D;stroke-width:3.8023;stroke-linejoin:round;stroke-miterlimit:10;}
	.st2{fill:none;stroke:#F7794D;stroke-width:3.8023;stroke-linecap:round;stroke-linejoin:round;stroke-miterlimit:10;}
</style>
<path class="st0" d="M176.1,89.7c2.7,7.1,4.2,14.8,4.2,22.9c0,35.9-29.1,65-65,65s-65-29.1-65-65s29.1-65,65-65
	c7,0,13.8,1.1,20.2,3.2"/>
<circle class="st1" cx="160.3" cy="66.4" r="14.1"/>
<circle class="st0" cx="116" cy="112.6" r="12.4"/>
<g>
	<g id="settings_5_">
		<path class="st0" d="M144.3,125.2c-1.6-1.7-2-4.1-1.5-6.3c0,0,0,0,0,0c0.1-0.3,0.1-0.5,0.2-0.7c0.4-2,1.7-3.7,3.6-4.6l5.6-2.8
			c0.9-0.6,1-1.3,0.8-2.1l-4.3-14.1c-0.3-0.4-0.9-1-2.1-0.8l-6.3,1c-2.1,0.3-4.2-0.4-5.7-1.8c-0.2-0.2-0.3-0.3-0.5-0.5
			c-1.6-1.4-2.4-3.4-2.3-5.5l0.4-6.2c0.6-1-0.3-1.9-1-2.1l-14.3-3.2c-0.7-0.2-1.9,0.3-2.1,1l-2.3,6c-0.7,1.8-2.1,3.3-4,3.9
			c-0.3,0.1-0.6,0.2-1,0.3c-2,0.8-4.3,0.4-6.1-0.8l-4.8-3.4c-1-0.6-1.8-0.4-2.7,0.2l-10,10.9c-0.4,0.3-0.3,1.4,0.2,2.3l3.8,4.5
			c1.4,1.7,1.9,4,1.3,6.1c0,0.1,0,0.2-0.1,0.2c-0.1,0.3-0.1,0.5-0.2,0.7c-0.4,2-1.7,3.7-3.6,4.6l-5.6,2.8c-0.9,0.6-1,1.3-0.8,2.1
			l4.3,14.1c0.3,0.4,0.9,1,2.1,0.8l6.3-1c2.1-0.3,4.2,0.4,5.7,1.8c0.2,0.2,0.3,0.3,0.5,0.5c1.6,1.4,2.4,3.4,2.3,5.5l-0.4,6.2
			c-0.2,0.7,0.4,1.6,1.5,1.8l14.3,3.2c0.7,0.2,1.9-0.3,2.1-1l2.3-5.8c0.8-2,2.4-3.4,4.4-4c0.2-0.1,0.4-0.1,0.7-0.2
			c2-0.6,4.2-0.4,5.9,0.8l5.2,3.6c0.6,0.5,1.8,0.4,2.3-0.2l10-10.9c0.5-0.6,0.8-1.7,0.1-2.2L144.3,125.2z"/>
	</g>
</g>
<polyline class="st2" points="157.4,64.2 160.9,60.8 160.9,71.7 "/>
</svg>
