<?xml version="1.0" encoding="utf-8"?>
<!-- Generator: Adobe Illustrator 22.0.1, SVG Export Plug-In . SVG Version: 6.00 Build 0)  -->
<svg version="1.1" id="Слой_1" xmlns="http://www.w3.org/2000/svg" xmlns:xlink="http://www.w3.org/1999/xlink" x="0px" y="0px"
	 viewBox="0 0 230 210" style="enable-background:new 0 0 230 210;" xml:space="preserve">
<style type="text/css">
	.st0{fill:#F7794D;}
</style>
<g>
	<path class="st0" d="M136.8,117.7h-25.9c-1,0-1.9-0.9-1.9-1.9V72.7c0-1,0.9-1.9,1.9-1.9s1.9,0.9,1.9,1.9v41.2h24
		c1,0,1.9,0.9,1.9,1.9S137.8,117.7,136.8,117.7z"/>
</g>
<g>
	<path d="M110.8,160c-1,0-1.9-0.9-1.9-1.9v-20.8c0-1,0.9-1.9,1.9-1.9s1.9,0.9,1.9,1.9v20.8C112.7,159.2,111.9,160,110.8,160z"/>
</g>
<g>
	<path d="M90,117.7H69.2c-1,0-1.9-0.9-1.9-1.9s0.9-1.9,1.9-1.9H90c1,0,1.9,0.9,1.9,1.9S91,117.7,90,117.7z"/>
</g>
<path d="M180.5,104.4h-9.6C165.7,77,142.3,56,113.7,54.7c0.1-0.2,0.2-0.5,0.2-0.8V48h7.6c1,0,1.9-0.9,1.9-1.9V34.9
	c0-1-0.9-1.9-1.9-1.9h-19c-1,0-1.9,0.9-1.9,1.9v11.3c0,1,0.9,1.9,1.9,1.9h7.6v5.8c0,0.3,0.1,0.5,0.2,0.8
	c-33.5,0.3-60.7,27.6-60.7,61.2c0,33.7,27.4,61.2,61.2,61.2c29.8,0,54.8-21.5,60.1-49.8h9.6c1,0,1.9-0.9,1.9-1.9v-19
	C182.4,105.2,181.5,104.4,180.5,104.4z M104.4,36.8h15.2v7.4h-15.2V36.8z M110.8,173.2c-31.6,0-57.4-25.7-57.4-57.4
	s25.7-57.4,57.4-57.4s57.4,25.7,57.4,57.4S142.5,173.2,110.8,173.2z M178.6,123.4h-7.1c0.3-2.5,0.5-5,0.5-7.6s-0.2-5.1-0.5-7.6h7.1
	V123.4z"/>
</svg>
