<?xml version="1.0" encoding="utf-8"?>
<!-- Generator: Adobe Illustrator 22.0.1, SVG Export Plug-In . SVG Version: 6.00 Build 0)  -->
<svg version="1.1" id="Слой_1" xmlns="http://www.w3.org/2000/svg" xmlns:xlink="http://www.w3.org/1999/xlink" x="0px" y="0px"
	 viewBox="0 0 230 210" style="enable-background:new 0 0 230 210;" xml:space="preserve">
<style type="text/css">
	.st0{fill:none;stroke:#000000;stroke-width:3.8023;stroke-linecap:round;stroke-linejoin:round;stroke-miterlimit:10;}
	.st1{filter:url(#Adobe_OpacityMaskFilter);}
	.st2{fill:#FFFFFF;}
	
		.st3{mask:url(#mask-16_2_);fill:none;stroke:#F7794D;stroke-width:3.8023;stroke-linecap:round;stroke-linejoin:round;stroke-miterlimit:10;}
	.st4{filter:url(#Adobe_OpacityMaskFilter_1_);}
	
		.st5{mask:url(#mask-18_2_);fill:none;stroke:#F7794D;stroke-width:3.8023;stroke-linecap:round;stroke-linejoin:round;stroke-miterlimit:10;}
	.st6{filter:url(#Adobe_OpacityMaskFilter_2_);}
	
		.st7{mask:url(#mask-20_2_);fill:none;stroke:#F7794D;stroke-width:3.8023;stroke-linecap:round;stroke-linejoin:round;stroke-miterlimit:10;}
	.st8{fill:none;stroke:#F7794D;stroke-width:3.8023;stroke-linecap:round;stroke-linejoin:round;stroke-miterlimit:10;}
	.st9{fill:none;stroke:#F7794D;stroke-width:3.8023;stroke-linecap:round;stroke-miterlimit:10;}
</style>
<ellipse class="st0" cx="111.7" cy="86.9" rx="12.9" ry="13.6"/>
<path class="st0" d="M96.9,130.4"/>
<path class="st0" d="M126,130.4"/>
<g id="Group-70_3_" transform="translate(84.000000, 130.000000)">
	<g id="Group-63_3_">
		<g id="Clip-62_3_">
		</g>
		<defs>
			<filter id="Adobe_OpacityMaskFilter" filterUnits="userSpaceOnUse" x="-47.8" y="-40.7" width="9.4" height="8">
				<feColorMatrix  type="matrix" values="1 0 0 0 0  0 1 0 0 0  0 0 1 0 0  0 0 0 1 0"/>
			</filter>
		</defs>
		<mask maskUnits="userSpaceOnUse" x="-47.8" y="-40.7" width="9.4" height="8" id="mask-16_2_">
			<g class="st1">
				<path id="path-15_2_" class="st2" d="M-71.4-0.6c0.6,3.8,4.2,6.3,7.9,5.7l50-8.1c3.8-0.6,6.3-4.1,5.7-7.9L-18-74.3
					c-0.6-3.8-4.1-6.3-7.9-5.7l-50,8.1c-3.8,0.6-6.3,4.2-5.7,7.9"/>
			</g>
		</mask>
		<path id="Stroke-61_3_" class="st3" d="M-40.3-34.6l-5.6-4.1"/>
	</g>
	<g id="Group-66_3_">
		<g id="Clip-65_3_">
		</g>
		<defs>
			<filter id="Adobe_OpacityMaskFilter_1_" filterUnits="userSpaceOnUse" x="-44.1" y="-38.7" width="22.6" height="21.8">
				<feColorMatrix  type="matrix" values="1 0 0 0 0  0 1 0 0 0  0 0 1 0 0  0 0 0 1 0"/>
			</filter>
		</defs>
		<mask maskUnits="userSpaceOnUse" x="-44.1" y="-38.7" width="22.6" height="21.8" id="mask-18_2_">
			<g class="st4">
				<path id="path-17_2_" class="st2" d="M-71.4-0.6c0.6,3.8,4.2,6.3,7.9,5.7l50-8.1c3.8-0.6,6.3-4.1,5.7-7.9L-18-74.3
					c-0.6-3.8-4.1-6.3-7.9-5.7l-50,8.1c-3.8,0.6-6.3,4.2-5.7,7.9L-71.4-0.6z"/>
			</g>
		</mask>
		<path id="Stroke-64_3_" class="st5" d="M-25.3-21.1L-25.3-21.1c2.8-3,2.4-7.7-0.7-10.2l-4.9-4c-2.9-2.4-7.2-2-9.7,0.9l0,0
			c-2.5,2.9-2.1,7.3,0.8,9.8l4.8,4.1C-32.1-18-27.9-18.3-25.3-21.1z"/>
	</g>
	<g id="Group-69_3_">
		<g id="Clip-68_3_">
		</g>
		<defs>
			<filter id="Adobe_OpacityMaskFilter_2_" filterUnits="userSpaceOnUse" x="-65.4" y="-56.4" width="22.4" height="21.6">
				<feColorMatrix  type="matrix" values="1 0 0 0 0  0 1 0 0 0  0 0 1 0 0  0 0 0 1 0"/>
			</filter>
		</defs>
		<mask maskUnits="userSpaceOnUse" x="-65.4" y="-56.4" width="22.4" height="21.6" id="mask-20_2_">
			<g class="st6">
				<path id="path-19_2_" class="st2" d="M-71.4-0.6c0.6,3.8,4.2,6.3,7.9,5.7l50-8.1c3.8-0.6,6.3-4.1,5.7-7.9L-18-74.3
					c-0.6-3.8-4.1-6.3-7.9-5.7l-50,8.1c-3.8,0.6-6.3,4.2-5.7,7.9L-71.4-0.6z"/>
			</g>
		</mask>
		<path id="Stroke-67_3_" class="st7" d="M-46.7-39.2l0.1-0.1c2.5-3,2.1-7.5-1-9.9l-4.7-3.8c-2.9-2.3-7.2-1.9-9.6,0.9l0,0
			c-2.5,2.9-2.1,7.3,0.8,9.8l4.6,3.9C-53.5-35.9-49.1-36.2-46.7-39.2z"/>
	</g>
</g>
<g>
	<g id="settings_6_">
		<path class="st8" d="M165.2,53.4c-0.8-0.9-1-2-0.8-3.2c0,0,0,0,0,0c0-0.1,0.1-0.2,0.1-0.4c0.2-1,0.9-1.8,1.8-2.3l2.8-1.4
			c0.4-0.3,0.5-0.6,0.4-1l-2.2-7.1c-0.1-0.2-0.5-0.5-1-0.4l-3.1,0.5c-1,0.2-2.1-0.2-2.8-0.9c-0.1-0.1-0.2-0.2-0.3-0.2
			c-0.8-0.7-1.2-1.7-1.1-2.8l0.2-3.1c0.3-0.5-0.2-1-0.5-1.1l-7.1-1.6c-0.4-0.1-1,0.2-1.1,0.5l-1.2,3c-0.4,0.9-1.1,1.6-2,1.9
			c-0.2,0.1-0.3,0.1-0.5,0.2c-1,0.4-2.2,0.2-3.1-0.4l-2.4-1.7c-0.5-0.3-0.9-0.2-1.3,0.1l-5,5.5c-0.2,0.1-0.2,0.7,0.1,1.2L137,41
			c0.7,0.9,0.9,2,0.7,3.1c0,0,0,0.1,0,0.1c0,0.1-0.1,0.2-0.1,0.4c-0.2,1-0.9,1.8-1.8,2.3l-2.8,1.4c-0.4,0.3-0.5,0.6-0.4,1l2.2,7.1
			c0.1,0.2,0.5,0.5,1,0.4l3.1-0.5c1-0.2,2.1,0.2,2.8,0.9c0.1,0.1,0.2,0.2,0.3,0.2c0.8,0.7,1.2,1.7,1.1,2.8l-0.2,3.1
			c-0.1,0.4,0.2,0.8,0.7,0.9l7.1,1.6c0.4,0.1,1-0.2,1.1-0.5l1.1-2.9c0.4-1,1.2-1.7,2.2-2c0.1,0,0.2-0.1,0.3-0.1c1-0.3,2.1-0.2,3,0.4
			l2.6,1.8c0.3,0.3,0.9,0.2,1.2-0.1l5-5.5c0.3-0.3,0.4-0.9,0.1-1.1L165.2,53.4z"/>
	</g>
</g>
<polyline class="st9" points="96.3,29.2 84.1,59 65.8,51.4 "/>
<line class="st8" x1="171.6" y1="86.2" x2="194.7" y2="90.1"/>
<line class="st8" x1="170" y1="95.7" x2="193.1" y2="99.6"/>
<line class="st8" x1="168.4" y1="105" x2="177" y2="106.4"/>
<path class="st0" d="M97.6,116.8c3.8-4,8.7-6.4,14.1-6.4h0c5.4,0,10.4,2.4,14.2,6.4"/>
<path class="st0" d="M83.4,156.7"/>
<path class="st0" d="M156.7,170.9c0,5.6-4.6,10.2-10.2,10.2c-10.7,0.2-57.2-12.4-57.2-12.4"/>
<path class="st0" d="M123.6,170.7c2.6-0.6,9.2-2.1,9.2-2.1"/>
<path class="st0" d="M156.5,172.9L156.5,172.9c1.2-5.5-2.3-10.9-7.7-12.1l-17.4-3.8l-5.3-1.4v-0.9v-26.9V117l28.1,30.1"/>
<path class="st0" d="M64.6,170.9c0,5.6,4.6,10.2,10.2,10.2c10.7,0.2,57.2-12.4,57.2-12.4"/>
<path class="st0" d="M64.9,172.9L64.9,172.9c-1.2-5.5,2.3-10.9,7.7-12.1l19.9-4.4l4.3-1.2l0.6-0.6v-26.9L97.4,117l-31.8,30.1"/>
</svg>
