<svg xmlns="http://www.w3.org/2000/svg" id="layer_1" viewBox="0 0 210.00001 39.999976">
  <path id="path4" fill="#fff" stroke-width=".37771717" d="M76.660122 9.1722161c2.774009 0 5.135666 1.2559469 7.047483 3.6917219l2.848983-2.283539c-1.012139-1.5223599-2.32417-2.7783066-3.936095-3.6917224-1.76187-1.0275927-3.786147-1.5223596-6.035344-1.5223596-3.598715 0-6.710104 1.2559467-9.18422 3.7297811-2.474116 2.4738349-3.748661 5.5566129-3.748661 9.2102759 0 3.615604 1.274545 6.736441 3.748661 9.210276 2.511603 2.511893 5.585505 3.76784 9.18422 3.76784 4.273474 0 7.609782-1.750714 9.933952-5.214082l-2.848982-2.24548c-1.949304 2.435775-4.310961 3.653663-7.047483 3.653663-2.511603 0-4.610854-.875357-6.260265-2.626071-1.649411-1.750713-2.474116-3.958135-2.474116-6.546146 0-2.549952.824705-4.719315 2.474116-6.470029 1.686898-1.788772 3.786148-2.6641289 6.297751-2.6641289z" class="st0"/>
  <path id="path6" fill="#fff" stroke-width=".37771717" d="M206.17637 9.0960981c-2.51161-2.4738344-5.623-3.7297811-9.18422-3.7297811-3.59872 0-6.71011 1.2559467-9.18422 3.7297811-2.47412 2.4738349-3.71118 5.5566129-3.71118 9.2102759 0 3.615604 1.23706 6.736441 3.71118 9.210276 2.47411 2.473834 5.54802 3.76784 9.18422 3.805899 3.56122 0 6.67261-1.255947 9.18422-3.76784C208.68797 25.042815 210 21.960037 210 18.344433c-.03749-3.653663-1.31203-6.736442-3.82363-9.2483349zM203.13995 24.85252c-1.64941 1.750714-3.74866 2.626071-6.18529 2.626071-2.47412 0-4.57337-.875357-6.18529-2.626071-1.61193-1.750713-2.43663-3.920076-2.43663-6.508087 0-2.62607.8247-4.833492 2.47412-6.546147 1.64941-1.750713 3.71117-2.6260699 6.18529-2.6641289h.0375c2.43663.038059 4.4984.9514749 6.14781 2.6641289 1.64941 1.750714 2.47411 3.958136 2.47411 6.546147 0 2.588011-.8247 4.795433-2.5116 6.508087z" class="st0"/>
  <path id="path8" fill="#fff" stroke-width=".37771717" d="M53.343449 26.489057c-1.049625-.837298-1.574437-2.207422-1.574437-4.110371V9.362511h7.647269V6.0133198h-7.647269V.26641218c0-.15223597-.149947-.26641294-.262407-.26641294-.03749 0-.112459 0-.187433.07611798L43.109604 8.9058031c-.07497.076118-.07497.190295-.03749.304472.03749.076118.11246.1522359.224919.1522359h4.385934v13.510942c0 2.816365.749732 4.90961 2.249197 6.279733 1.536951 1.370124 3.711174 2.055186 6.485184 2.055186 1.087111 0 2.361656-.152236 3.823634-.456708v-3.311132c-1.124598.114177-2.024277.190295-2.661549.190295-1.836844.03806-3.261336-.342531-4.235988-1.14177z" class="st0"/>
  <path id="path10" fill="#fff" stroke-width=".37771717" d="M174.23777 26.489057c-1.04962-.837298-1.57443-2.207422-1.57443-4.110371V9.362511h7.64726V6.0133198h-7.64726V.26641218c0-.15223597-.14995-.26641294-.26241-.26641294-.0375 0-.11246 0-.18743.07611798l-8.20957 8.82968588c-.075.076118-.075.190295-.0375.304472.0375.076118.11246.1522359.22492.1522359h4.38593v13.510942c0 2.816365.74974 4.90961 2.2492 6.279733 1.53695 1.370124 3.71118 2.055186 6.48519 2.055186 1.08711 0 2.36165-.152236 3.82363-.456708v-3.311132c-1.1246.114177-2.02428.190295-2.66155.190295-1.83684.03806-3.26133-.342531-4.23599-1.14177z" class="st0"/>
  <path id="path12" fill="#fff" stroke-width=".37771717" d="M36.362014 19.60038v-3.463369H20.992503c.412353-2.131303 1.349518-3.843958 2.848983-5.137963 1.499464-1.2940061 3.261335-1.9410089 5.285612-1.9410089 2.024277 0 3.748661.6470028 5.135666 1.9029499 1.387005 1.255946 2.09925 3.00666 2.136737 5.214081h3.936094c-.11246-3.00666-1.162085-5.518553-3.148875-7.4976208-2.099251-2.0932445-4.7608-3.1588963-7.909675-3.1588963-3.486255 0-6.447698 1.2559467-8.846841 3.7678401-2.399143 2.511893-3.598715 5.556613-3.598715 9.172217 0 3.653663 1.237059 6.698382 3.711175 9.172217 2.474116 2.473834 5.510532 3.691722 9.18422 3.691722 3.823634 0 7.08497-1.446242 9.746519-4.300666l-2.249197-2.626071c-2.21171 2.245481-4.685826 3.349192-7.422349 3.349192-2.399143 0-4.42342-.76118-6.072831-2.245481-1.611924-1.4843-2.54909-3.38725-2.811496-5.784966h15.519457v-.114177z" class="st0"/>
  <path id="polygon14" fill="#fff" d="M402.8 283.3l23.7-6v-9.8l-23.7 6.3v-5.3h-10.9v65.1h10.9z" class="st0" transform="matrix(.37487 0 0 .38059 -55.592645 -96.251189)"/>
  <path id="path16" fill="#fff" stroke-width=".37771717" d="M149.49661 5.366317c-4.57337 0-8.58443 2.7021883-10.68369 6.698382V5.9752608h-4.16101V39.999999h4.16101V24.624166c2.09926 3.996194 6.07284 6.698383 10.68369 6.698383 6.74759 0 12.22063-5.823026 12.22063-12.978116S156.2442 5.366317 149.49661 5.366317zm-.67476 22.226451c-4.64834 0-8.43449-4.14843-8.43449-9.248335 0-5.099905 3.78615-9.2483349 8.43449-9.2483349s8.43449 4.1484299 8.43449 9.2483349-3.78615 9.248335-8.43449 9.248335z" class="st0"/>
  <path id="polygon18" fill="#fff" d="M462.8 329.3L446 268.5h-11.8l19.2 65.1h7.7l-9.5 24.3h11.7l34.2-89.4h-11.1z" class="st0" transform="matrix(.37487 0 0 .38059 -55.592645 -96.251189)"/>
  <path id="path20" fill="#fff" stroke-width=".37771717" d="M8.2470552 22.835394c0 3.38725-1.7243841 5.023787-5.3230989 5.023787-.7122456 0-1.5369511-.03806-2.43662975-.152236H.37486672L6e-7 31.436726l.07497322.038059c1.04962518.304472 2.17422348.456708 3.37379508.456708 2.6615495 0 4.7982863-.723121 6.372724-2.169363 1.5744381-1.446241 2.3991431-3.653663 2.3991431-6.622264V5.7469069H8.2095686V22.835394z" class="st0"/>
</svg>
