<svg xmlns="http://www.w3.org/2000/svg" xmlns:xlink="http://www.w3.org/1999/xlink" width="185" height="36" viewBox="0 0 185 36"><defs><path id="c70ja" d="M120.52 44.13a6.91 6.91 0 0 0-1.83 4.86c0 1.97.61 3.63 1.83 4.93a6.14 6.14 0 0 0 4.67 1.96c2.03 0 3.8-.93 5.25-2.76l.32-.4 3.08 2.42-.27.41a9.58 9.58 0 0 1-8.43 4.46c-3.03 0-5.64-1.08-7.75-3.2a10.71 10.71 0 0 1-3.17-7.82c0-3.07 1.07-5.7 3.17-7.8a10.6 10.6 0 0 1 7.75-3.17c1.9 0 3.62.44 5.11 1.3a9.91 9.91 0 0 1 3.32 3.16l.27.4-3.08 2.47-.32-.41c-1.43-1.85-3.2-2.8-5.25-2.8-1.88 0-3.45.67-4.67 1.99zM242 48.99c0 3.07-1.08 5.7-3.22 7.82a10.65 10.65 0 0 1-7.75 3.2 10.68 10.68 0 0 1-7.73-3.22 10.68 10.68 0 0 1-3.15-7.8c0-3.07 1.06-5.7 3.15-7.8 2.09-2.1 4.7-3.17 7.73-3.17 3.01 0 5.62 1.07 7.75 3.17A10.58 10.58 0 0 1 242 49zm-15.57 4.93a6.02 6.02 0 0 0 4.6 1.96c1.82 0 3.37-.66 4.6-1.96a6.85 6.85 0 0 0 1.86-4.89c0-1.97-.62-3.62-1.84-4.92a6.19 6.19 0 0 0-4.57-2c-1.86.02-3.41.7-4.63 2a6.95 6.95 0 0 0-1.84 4.92c0 1.95.61 3.6 1.82 4.89zM65.6 38.55h4.24v14.01c0 2.53-.7 4.46-2.09 5.73-1.37 1.25-3.2 1.89-5.46 1.89-1 0-1.97-.13-2.86-.38l-.42-.12-.02-.46.37-3.55.53.07c.76.1 1.4.14 1.96.14 2.59 0 3.75-1.09 3.75-3.51zm24.28 12.08H78.57a6.3 6.3 0 0 0 2 3.74 6.44 6.44 0 0 0 4.53 1.67c2.07 0 3.96-.85 5.62-2.54l.39-.4L93.59 56l-.32.35c-2.24 2.42-5 3.65-8.2 3.65-3.08 0-5.68-1.06-7.75-3.14a10.64 10.64 0 0 1-3.13-7.79c0-3.05 1.02-5.66 3.04-7.77a9.97 9.97 0 0 1 7.47-3.2 9.18 9.18 0 0 1 9.37 8.6H89.9a4.8 4.8 0 0 0-1.5-3.27 5.3 5.3 0 0 0-3.77-1.4c-1.52 0-2.8.48-3.91 1.45a6.4 6.4 0 0 0-1.97 3.22h11.15zm127.18 5.25l.57-.06v3.68l-.42.08c-1.2.25-2.26.37-3.17.37-2.36 0-4.22-.6-5.55-1.8-1.33-1.2-2-3.04-2-5.47V42.31h-4.6v-.18l.15-.14 8.43-9h.34v5.56h6.15v3.76h-6.15v9.99c0 1.36.36 2.33 1.06 2.89.7.55 1.74.83 3.1.83.49 0 1.2-.05 2.09-.14zm-105.94 0l.57-.06v3.68l-.42.08c-1.2.25-2.26.37-3.17.37-2.36 0-4.22-.6-5.55-1.8-1.32-1.2-2-3.04-2-5.47V42.31h-4.6v-.18l.15-.14 8.43-9h.34v5.56h6.15v3.76h-6.15v9.99c0 1.36.36 2.33 1.06 2.89.7.55 1.74.83 3.1.83.5 0 1.2-.05 2.09-.14zm31.63-15.92l7.52-1.47v4.09l-7.52 1.4v15.55h-4.31V38.5h4.3zm57.85 9.05c0 6.07-4.64 11-10.34 11-3.64 0-6.32-2-8.06-4.66V66h-4.38V38.5h4.38v4.1a9.75 9.75 0 0 1 8.06-4.58c5.7 0 10.34 4.93 10.34 11zm-4.62.02c0-3.82-2.82-6.93-6.27-6.93-3.46 0-6.27 3.11-6.27 6.93s2.81 6.93 6.27 6.93c3.45 0 6.27-3.1 6.27-6.93zm-37.16 10.5l-5.31-21.04h4.65l4.18 17.47.92 3.4 6.58-20.87h4.36L165.67 66h-4.57l2.12-6.46z"/></defs><g><g transform="translate(-58 -31)"><use xlink:href="#c70ja"/></g></g></svg>