<svg xmlns="http://www.w3.org/2000/svg" width="48" height="47.99798">
  <circle cx="24" cy="24" r="24" fill="#ffffff"/>
  <path fill="#f7931a" stroke-width=".05335" d="M22.26593 47.97137c-1.6593-.11161-4.01141-.57195-5.68199-1.11202-1.97895-.63978-4.10912-1.66545-5.8412-2.81252-4.95433-3.28102-8.51656-8.2794-10.00422-14.03755-.58454-2.2625-.78022-4.0054-.73133-6.51378.04474-2.29465.28342-3.92552.89049-6.08432.6598-2.34634 1.77146-4.75044 3.15207-6.81678 3.22766-4.8308 8.25877-8.38755 13.941-9.8556 2.26096-.58414 4.00382-.77994 6.51378-.73181 2.4954.04786 4.6283.39832 6.92505 1.13788 1.95298.62886 4.21487 1.72845 5.97604 2.90516 4.8308 3.22766 8.38756 8.25877 9.8556 13.941.58352 2.25853.77885 3.99553.73215 6.5104-.03038 1.6357-.11107 2.46397-.38402 3.9418-.66387 3.59443-2.21335 7.1047-4.43562 10.04866-1.58287 2.09693-3.5552 3.95956-5.75583 5.4357-3.44663 2.31195-7.33887 3.67804-11.47068 4.02595-.5837.04915-3.03892.06105-3.6813.01781zm1.01385-9.3661c.3477-1.44594 1.03574-4.16145 1.06073-4.18643.01843-.01843.29143.0074.60669.05738 1.67823.26604 3.25394.32732 4.25874.16563 1.94378-.31279 3.2477-1.27937 4.07362-3.01973.50948-1.07357.76004-2.09682.75593-3.08704-.0072-1.7286-.7725-2.87976-2.64051-3.97183l-.20756-.12134.39294-.11935c1.24098-.37694 2.13912-1.19265 2.61117-2.37155.29562-.73827.39212-1.25618.39358-2.11231.0014-.89283-.06829-1.22302-.39866-1.88574-.63981-1.28343-2.01253-2.31212-4.21115-3.15574-.3668-.14074-.67222-.25971-.67871-.26438-.0065-.0047.22928-.97583.52393-2.15814.29465-1.1823.52805-2.15613.51865-2.16405-.0094-.0079-.5933-.15729-1.29754-.33193l-1.28045-.31753-.52331 2.08304c-.28782 1.14568-.53149 2.09122-.54147 2.1012-.0218.02177-2.06398-.45891-2.09915-.49408-.01349-.01347.20988-.96254.49634-2.10902.28645-1.1465.51127-2.09408.4996-2.10576-.047-.04701-2.5562-.65394-2.57332-.62244-.01013.01866-.25563.98825-.54555 2.15466-.28992 1.1664-.55145 2.12076-.58117 2.12078-.0297.00002-1.21525-.29007-2.63452-.64465-1.41927-.35457-2.59833-.62468-2.62014-.60024-.04301.0482-.70847 2.6903-.68337 2.71322.0084.0077.45705.123.99699.25629 1.5204.37533 1.94164.64757 2.08724 1.34894l.0626.30153-1.4793 5.95511c-.8136 3.27531-1.515 6.02713-1.55867 6.11517-.1908.38468-.49.5767-.89261.5729-.1474-.0014-.70017-.11232-1.22835-.24652-.52819-.1342-.96678-.22652-.97466-.20516-.0079.02136-.29786.69067-.64439 1.48736l-.63005 1.44854 2.45835.61858c1.35209.34022 2.54541.64302 2.65182.6729l.19348.05432-.54732 2.1873c-.53447 2.13595-.54465 2.18795-.43356 2.21506.06257.01526.64043.15858 1.28415.31847.6437.15989 1.18041.28067 1.19267.26842.01224-.01224.26133-.9776.55352-2.1452.29218-1.1676.53804-2.1297.54634-2.138.0155-.0155 2.07383.51716 2.10057.5436.0082.0081-.22335.97236-.51453 2.1428-.29117 1.17046-.52142 2.13663-.51165 2.14707.02117.0226 2.42269.63607 2.51748.64308.0361.0029.07866-.04917.09454-.1152zm1.44034-7.64905c-.63709-.0631-1.20108-.14958-1.894-.29041-1.0577-.21498-2.37548-.55765-2.36805-.61578.0094-.07312 1.42212-5.75432 1.43522-5.77148.02395-.03138 2.11005.48043 2.77443.6807 2.00157.60333 3.25987 1.40636 3.7467 2.39108.17478.35353.20286.46345.21968.85978.0579 1.36458-.63274 2.25751-2.02058 2.61244-.39512.10105-1.46218.17638-1.8934.13367zm.93366-8.644c-.71757-.09139-2.99317-.5984-3.08616-.68761-.01013-.0097.27505-1.1958.63373-2.63573.4733-1.90003.67267-2.61806.72695-2.61806.14598 0 2.02682.47922 2.52576.64354 2.48618.81879 3.4701 2.16178 2.82462 3.85543-.23764.62354-.73637 1.06138-1.4856 1.30422-.3402.11026-.5297.13384-1.17896.14668-.42548.0084-.85764.0046-.96034-.0085z"/>
</svg>
