<svg xmlns="http://www.w3.org/2000/svg" width="48" height="48">
  <path fill="#f7a800" d="M23.878873 2.0414234c-2.970458-.0183536-5.943624.22667-8.844406.8874188-4.417387.9343899-8.698904 2.5516029-12.6180251 4.7976357-.5483431.3570521-.2169716 1.1345954-.2889489 1.6670452.1243043 2.9005249.4853889 5.8042939 1.188064 8.6219709.9896642 2.570973 3.1627956 4.61587 5.6705048 5.686747 1.7581832.801486 3.7335292.76542 5.6140282.584197 3.942088-.752883 7.373156-3.938782 8.172113-7.922747.452513-2.168156.23771-4.456365 1.127737-6.5173721 1.174685-3.1218941 3.748895-5.6265813 6.792425-6.8985621.858465-.2779255-.0075-.5301619-.449553-.5259089-2.100566-.3566668-4.238454-.3989442-6.363939-.3804245z"/>
  <path fill="#67b2e8" d="M35.153838 3.9050207c-3.904291.024548-7.686514 2.4417587-9.271094 6.0346313-1.780213 3.78857-.904514 8.696228 2.198442 11.534549 1.446443 1.348686 3.224232 2.2867 4.585318 3.734863 2.19564 2.098228 3.358938 5.172727 3.33654 8.170526.03967.634323-.106772 1.3138.06848 1.923993.361831.05888.509833-.497572.750292-.700967 2.300505-3.136363 4.373498-6.466815 5.801693-10.100227 2.124851-5.248175 3.373016-10.904757 3.239026-16.5862588-.800689-.6780209-1.870388-1.0292498-2.797427-1.5376819-2.015396-.9784398-4.086321-1.9380999-6.295866-2.3685686-.534255-.080362-1.075348-.1133097-1.615407-.104859z"/>
  <path fill="#00c4b3" d="M23.470594 23.321808c-3.136111-.01974-5.647754 2.327841-8.665051 2.733778-3.00337.474015-6.1827513-.170479-8.7267829-1.872253-.2409737-.08232-.7008571-.60601-.851834-.223142C8.0344588 31.371939 13.082799 37.864798 19.36097 42.655433c1.471717 1.094749 2.967772 2.184412 4.587702 3.045914.976957-.39616 1.837963-1.086035 2.739905-1.640974 2.034523-1.431069 4.036271-2.947181 5.783862-4.724609.879006-1.376204 1.479355-2.960929 1.712485-4.581195.40611-3.59106-1.15662-7.362879-4.120694-9.462296-1.713817-1.285201-3.827006-2.008598-5.972367-1.966872-.207031-.0058-.414185-.007-.621269-.0036z"/>
  <path d="M23.990115.00178054C21.763513.0135426 19.525938.1042795 17.32514.44094792c-1.906472.24460214-3.788659.64010978-5.651008 1.11561568C7.6000976 2.6679504 3.6607403 4.2860786 0 6.3948921c.08619016 2.3139391.10140217 4.6386049.48362605 6.9280759.29312773 2.388319.89185015 4.734982 1.55370685 7.046727 2.0467738 6.726856 5.5793649 13.003514 10.2981631 18.208567 2.251985 2.392828 4.617591 4.697373 7.293992 6.613764C21.032917 46.19924 22.456575 47.20287 23.98932 48c1.777593-.965527 3.449734-2.131695 5.06812-3.347157 6.356181-4.855079 11.541669-11.276759 14.788558-18.609653 2.317504-5.116479 3.679738-10.661043 4.045421-16.2664777.0481-1.1456687.07915-2.2939889.108581-3.4390266-3.516077-1.9459148-7.228429-3.5454221-11.102637-4.6207183C34.82389 1.1535061 32.719741.70864791 30.588026.42750969c-2.185485-.31454592-4.390381-.44457638-6.597911-.42572915zm.781711 2.06438556c2.05047.022498 4.112926.1639005 6.12765.5537125.0919.00762.255155.083871.06846.1315766-1.795118.7065495-3.454351 1.7814652-4.753954 3.2196296-2.020192 2.1466621-3.13833 5.0595442-3.214818 7.9991982-.02877 2.628514-.9753 5.290255-2.83226 7.178593-1.82807 1.983482-4.476801 3.178612-7.16784 3.23251-1.450129.0033-2.903963-.231178-4.2291251-.840047-2.4971563-1.08457-4.5717123-3.203246-5.4970197-5.7787-.6099981-2.984541-1.0447819-6.019946-1.1017201-9.069611.054714-.3570256-.1164028-.8759939.3455028-.9796849C8.2333278 4.4704399 14.691857 2.5706292 21.241656 2.1345469c1.175922-.051634 2.353188-.070083 3.53017-.068381zm10.568223 1.9011424c2.070552-.038547 3.990042.8354721 5.86767 1.5990546 1.549665.7023976 3.085691 1.4435179 4.560317 2.2940996.167389 1.3714622-.04333 2.7466233-.09662 4.1186683-.73443 7.872573-3.677084 15.521789-8.377188 21.867218-.427175.512197-.774686 1.123813-1.298371 1.540915-.05316-.189579.112137-.460195.08483-.682549.122916-2.014878-.0714-4.084971-.912451-5.940455-.634716-1.469428-1.527928-2.829513-2.703984-3.920612-1.473989-1.539878-3.561454-2.336558-4.947033-3.979641-2.376998-2.754494-3.21312-6.851514-1.840298-10.263185.866196-2.3949873 2.723204-4.3979014 4.979228-5.5471079 1.456075-.7196336 3.057335-1.1081957 4.683898-1.0864056zM24.146404 23.370547c3.801289-.04657 7.482864 2.351908 9.056375 5.811023.831501 1.734917 1.126262 3.695813.91021 5.604829-.168938 1.45085-.7557 2.825785-1.41225 4.116785-.515515.84008-1.374717 1.396767-2.079594 2.065475-2.063084 1.765737-4.280494 3.36092-6.63806 4.705534C15.98095 41.054617 9.479316 33.822752 5.8227017 25.30958c-.1955394-.505528-.4916547-1.069656-.6037322-1.564791 1.0430215.610724 2.0398354 1.325222 3.1897901 1.733765 3.2189944 1.282591 6.9715924 1.059792 10.0353614-.552096 1.617341-.829399 3.350534-1.590654 5.205273-1.552133.165634-.0042.331335-.0049.49701-.0038z"/>
</svg>
