<?xml version="1.0" encoding="UTF-8" standalone="no"?>
<svg
   xmlns:dc="http://purl.org/dc/elements/1.1/"
   xmlns:cc="http://creativecommons.org/ns#"
   xmlns:rdf="http://www.w3.org/1999/02/22-rdf-syntax-ns#"
   xmlns:svg="http://www.w3.org/2000/svg"
   xmlns="http://www.w3.org/2000/svg"
   xmlns:sodipodi="http://sodipodi.sourceforge.net/DTD/sodipodi-0.dtd"
   xmlns:inkscape="http://www.inkscape.org/namespaces/inkscape"
   version="1.1"
   id="svg10"
   width="1000"
   height="1000"
   viewBox="0 0 1000 1000"
   sodipodi:docname="uca.svg"
   inkscape:version="1.0.1 (3bc2e813f5, 2020-09-07)">
  <metadata
     id="metadata16">
    <rdf:RDF>
      <cc:Work
         rdf:about="">
        <dc:format>image/svg+xml</dc:format>
        <dc:type
           rdf:resource="http://purl.org/dc/dcmitype/StillImage" />
        <dc:title></dc:title>
      </cc:Work>
    </rdf:RDF>
  </metadata>
  <defs
     id="defs14" />
  <sodipodi:namedview
     pagecolor="#ffffff"
     bordercolor="#666666"
     borderopacity="1"
     objecttolerance="10"
     gridtolerance="10"
     guidetolerance="10"
     inkscape:pageopacity="0"
     inkscape:pageshadow="2"
     inkscape:window-width="1920"
     inkscape:window-height="1017"
     id="namedview12"
     showgrid="false"
     inkscape:zoom="0.59821234"
     inkscape:cx="769.98315"
     inkscape:cy="345.5049"
     inkscape:window-x="-4"
     inkscape:window-y="-4"
     inkscape:window-maximized="1"
     inkscape:current-layer="g18" />
  <g
     inkscape:groupmode="layer"
     inkscape:label="Image"
     id="g18"
     style="display:inline">
    <path
       style="fill:#cbaf6d"
       d="M 472,941.91468 C 372.14227,937.75142 275.89737,897.29461 201.84196,828.35301 72.392373,707.84239 30.962672,520.02851 97.646023,356 151.15309,224.38267 270.41507,126.04809 410.5,98.043814 c 31.84224,-6.365558 44.40236,-7.489471 84,-7.516542 38.55857,-0.02636 48.30656,0.740428 77.5,6.096247 C 704.88958,121.0034 819.34241,208.43479 878.08726,330.44592 898.5292,372.90317 911.56698,417.86957 917.68042,467 c 2.57926,20.7281 2.56378,76.43727 -0.0268,96.5 -5.34568,41.3994 -13.30787,72.98123 -27.34659,108.46959 -56.92123,143.89064 -190.14974,247.30103 -344.07176,267.0644 -8.55024,1.09784 -21.6635,2.22379 -29.14058,2.5021 -7.47707,0.27832 -16.74468,0.64152 -20.59468,0.80711 -3.85,0.1656 -14.875,-0.0272 -24.5,-0.42852 z m 55.05011,-10.96111 C 648.96731,921.4682 758.47682,859.80269 830.43057,760.11809 902.25797,660.60853 926.31369,532.39994 895.59299,412.82502 874.86538,332.1464 829.92452,259.07304 767,203.73416 675.80218,123.53037 554.57689,87.228017 433.94745,103.99761 354.89937,114.98668 281.3697,148.25139 221.53853,200.09109 209.13671,210.83644 183.78599,236.60001 174.39735,248 121.00356,312.83242 89.722163,386.73065 79.78897,471.5 c -2.050157,17.49593 -1.710473,74.53092 0.547927,92 6.609955,51.12907 19.507448,94.24796 41.176883,137.66252 27.2825,54.66031 65.44707,101.86624 113.08528,139.8757 64.78779,51.69271 142.67218,82.66227 225.90094,89.82612 14.54368,1.25184 50.97905,1.30069 66.55011,0.0892 z M 464.66277,905.25 c -0.78836,-1.29873 0.79608,-43.04304 1.66676,-43.91328 0.45624,-0.45601 4.38128,-0.99041 8.7223,-1.18754 7.66136,-0.34793 7.98153,-0.26967 10.92047,2.66927 2.84814,2.84815 3.0277,3.48623 3.0277,10.75946 0,7.70952 -0.0114,7.74262 -3.96915,11.50753 -2.18376,2.07736 -5.22003,3.91943 -6.75,4.09516 -2.6852,0.30841 -2.79129,0.54213 -3.08442,6.79498 -0.22532,4.80628 -0.79455,6.933 -2.20819,8.25 -1.89693,1.76726 -7.4591,2.45166 -8.32547,1.02442 z m 14.1339,-29.84819 c 0.21276,-3.64282 -0.14078,-5.4425 -1.25,-6.36308 -1.33427,-1.10734 -1.54818,-0.88915 -1.55768,1.58883 -0.006,1.57984 -0.29735,4.60571 -0.64734,6.72414 -0.56367,3.41183 -0.41966,3.81047 1.261,3.49063 1.51652,-0.28859 1.9569,-1.38059 2.19402,-5.44052 z M 507.5515,903.75 c -0.21215,-0.6875 -0.65226,-5.75 -0.97802,-11.25 -0.32575,-5.5 -0.87855,-13.30029 -1.22842,-17.33399 l -0.63614,-7.33398 -3.23844,0.60753 c -2.43817,0.4574 -3.39066,0.21084 -3.85446,-0.9978 -2.08064,-5.42208 0.88452,-7.04788 14.63398,-8.02376 l 9.75,-0.69202 v 3.05319 c 0,2.46644 -0.59932,3.30952 -3.1186,4.38701 l -3.11861,1.33382 0.66047,12 c 0.36326,6.6 0.93074,14.5875 1.26106,17.75 0.51284,4.90988 0.36062,5.75 -1.04186,5.75 -0.90335,0 -1.64246,0.45 -1.64246,1 0,1.46177 -6.9927,1.22707 -7.4485,-0.25 z m -75.94213,-2.57303 c -0.27976,-0.45267 -0.0838,-3.82293 0.43543,-7.48947 0.79173,-5.59063 0.53083,-9.02969 -1.61669,-21.31065 -1.81336,-10.37005 -2.24954,-14.95542 -1.49444,-15.71052 0.59443,-0.59443 1.07311,-0.64591 1.08164,-0.11633 0.008,0.5225 0.40915,0.32817 0.8905,-0.43183 0.61769,-0.97529 1.90807,-1.18807 4.38588,-0.72323 l 3.51071,0.65862 0.70928,7.06274 c 0.76796,7.64703 1.33569,7.77571 3.89898,0.8837 2.07563,-5.58084 6.84337,-8.39367 10.40205,-6.13691 1.01838,0.64581 -0.0222,3.87656 -4.64093,14.4092 -4.59985,10.48956 -6.11521,15.18563 -6.6642,20.65223 C 441.99985,897.98023 441.3978,900 440.39851,900 439.62933,900 439,900.45 439,901 c 0,1.19682 -6.66174,1.35634 -7.39063,0.17697 z M 541.50341,899.75 c -3.07375,-2.6517 -3.8625,-5.72523 -5.58818,-21.77543 -1.47619,-13.72973 -0.96418,-16.35107 3.82405,-19.57786 6.78697,-4.57373 14.93764,-3.85595 17.73948,1.56222 0.76145,1.47247 2.16682,9.1755 3.12307,17.11784 2.02243,16.79797 1.55864,18.85481 -5.10183,22.62569 -5.22138,2.95613 -10.60387,2.97441 -13.99659,0.0475 z m 10.18365,-9 c -0.29136,-1.2375 -1.09398,-7.32282 -1.78359,-13.52294 -1.12728,-10.13516 -2.71471,-14.74915 -4.47037,-12.9935 -0.49891,0.49892 2.24995,24.95737 3.09255,27.51644 0.22637,0.6875 1.14949,1.25 2.05137,1.25 1.19083,0 1.49475,-0.61604 1.11004,-2.25 z M 404,897.08372 c -2.30286,-0.66039 -2.47133,-1.10596 -2.13646,-5.65032 0.72255,-9.80517 0.61702,-12.75609 -0.46941,-13.12672 -0.6472,-0.22079 -1.64677,2.17161 -2.41001,5.76815 -1.76925,8.3371 -6.15444,12.00523 -10.81795,9.04903 -1.8324,-1.16155 7.53051,-42.08352 9.82079,-42.92323 0.83217,-0.30511 1.76214,-0.92109 2.06659,-1.36884 0.80294,-1.18087 13.66032,2.59929 15.97944,4.69806 3.53324,3.19755 1.816,15.66644 -2.6026,18.89739 -1.24951,0.91366 -1.33968,1.68115 -0.46714,3.9761 C 414.34004,880.02458 411.41403,895 409.3297,895 408.59836,895 408,895.675 408,896.5 c 0,1.62458 -0.24547,1.6604 -4,0.58372 z m 3.33268,-32.42191 c 0.61812,-2.61369 0.55034,-4.17879 -0.21409,-4.94322 -1.64335,-1.64335 -2.9083,0.10597 -3.71137,5.13246 -0.62192,3.89266 -0.49941,4.31335 1.1629,3.99322 1.20906,-0.23284 2.17399,-1.69372 2.76256,-4.18246 z m 179.20815,29.40425 c -0.29149,-0.47163 -1.664,-10.43631 -3.05003,-22.14373 -2.00642,-16.94772 -2.26229,-21.4548 -1.25542,-22.11331 2.40087,-1.57021 12.1782,-4.06841 12.48473,-3.18997 0.16908,0.48452 4.26811,9.43095 9.10897,19.88095 8.72637,18.8377 8.78391,19.01365 6.73624,20.59751 -1.13593,0.87863 -3.30567,1.90042 -4.82166,2.27064 -2.4399,0.59586 -2.94906,0.26897 -4.43521,-2.84751 -1.71775,-3.60215 -2.77878,-4.14244 -5.16534,-2.63025 -0.90047,0.57057 -1.14521,1.82682 -0.72759,3.73469 0.49264,2.25062 0.17565,3.15724 -1.45974,4.175 -3.43245,2.13614 -6.84977,3.18046 -7.41495,2.26598 z m 8.46835,-21.54191 c -1.3739,-3.61363 -2.20988,-2.77765 -1.37862,1.37863 0.38171,1.90856 1.01122,2.85544 1.5441,2.32256 0.53288,-0.53288 0.46542,-2.04181 -0.16548,-3.70119 z M 358.3783,884.60206 C 354.39869,882.82034 352,879.3934 352,875.48956 c 0,-3.89307 8.58887,-28.37764 10.81896,-30.84194 6.00046,-6.63067 17.17683,-5.90042 20.16666,1.31767 1.01981,2.46204 1.02194,3.93606 0.0109,7.54716 C 382.29049,856.03413 381.1399,858 380.37004,858 379.61652,858 379,858.49878 379,859.10841 c 0,1.16347 -4.83443,0.39753 -6.26313,-0.9923 -0.41971,-0.4083 -0.25992,-2.18585 0.35511,-3.95013 0.84946,-2.43674 0.82538,-3.56063 -0.10018,-4.67586 -0.67013,-0.80745 -1.58163,-1.24362 -2.02557,-0.96925 -0.44394,0.27437 -2.69501,6.16379 -5.00238,13.08759 -3.83298,11.50179 -4.05806,12.72591 -2.60669,14.17727 1.45136,1.45136 1.72154,1.27016 3.1291,-2.0986 0.84732,-2.02792 2.17204,-3.68713 2.94383,-3.68713 0.77178,0 1.5626,-0.47808 1.75737,-1.06239 0.49542,-1.48624 5.81936,0.61705 5.79058,2.28764 -0.0503,2.91902 -3.95655,9.62326 -6.77735,11.63185 -4.02112,2.86328 -8.00962,3.45198 -11.82239,1.74496 z M 618.48941,862.75 c -4.24369,-10.5875 -7.93932,-19.81593 -8.21251,-20.50761 -0.5947,-1.50569 8.56786,-5.84684 9.67972,-4.58617 0.40929,0.46408 3.58432,8.04378 7.05562,16.84378 3.4713,8.8 6.45302,16.1769 6.62605,16.39311 0.17303,0.21622 2.59301,-0.55375 5.37773,-1.71102 l 5.06312,-2.10414 0.96043,2.52612 c 1.40543,3.69658 1.27506,4.02063 -2.28957,5.69082 C 639.57365,876.78317 626.8762,882 626.43019,882 c -0.12374,0 -3.6971,-8.6625 -7.94078,-19.25 z m 40.64468,4.88015 C 658.11263,866.36418 640,830.29878 640,829.53085 640,828.87108 647.65038,825 648.95427,825 c 0.56867,0 4.63925,7.2 9.04573,16 4.40648,8.8 8.25648,16 8.55555,16 0.29907,0 1.75892,-0.61799 3.24411,-1.37331 5.56646,-2.83095 6.78543,-2.83273 8.07072,-0.0118 0.66248,1.45398 1.01937,2.82872 0.7931,3.05499 -0.22627,0.22627 -4.50777,2.58918 -9.51446,5.25092 -6.47184,3.44068 -9.36664,4.51286 -10.01493,3.70938 z m -349.37506,-3.68971 -5.74097,-2.96337 9.62357,-19.27721 c 11.6102,-23.2567 11.71716,-23.34904 21.02025,-18.14646 10.53753,5.89292 10.66586,7.80008 1.71382,25.46891 -9.44348,18.63878 -14.22102,21.3165 -26.61667,14.91813 z m 17.55357,-17.5368 c 4.56117,-9.16315 5.52792,-11.89087 4.60743,-13 -0.6407,-0.772 -1.55635,-1.40364 -2.03477,-1.40364 -0.47841,0 -3.60885,5.46398 -6.95653,12.14217 -6.01678,12.00272 -6.32667,13.7837 -2.40861,13.84252 0.56107,0.008 3.61768,-5.20305 6.79248,-11.58105 z m -48.00989,0.76627 c -3.9585,-2.56845 -7.21769,-5.11991 -7.24263,-5.66991 -0.025,-0.55 5.01383,-8.8409 11.19728,-18.42422 13.67677,-21.19672 13.53611,-21.10973 23.60344,-14.59721 6.72432,4.34995 7.01659,4.69643 5.94508,7.04814 -0.6198,1.36031 -1.68153,2.47329 -2.35941,2.47329 -0.67787,0 -1.50103,0.69979 -1.82924,1.55509 -0.49769,1.29696 -1.334,1.04784 -5.03832,-1.5008 l -4.44158,-3.05589 -2.06867,2.90517 c -2.77984,3.90393 -2.64392,4.57778 1.43134,7.09643 1.925,1.18972 3.48569,2.46392 3.4682,2.83156 -0.0587,1.23448 -2.67809,4.16844 -3.72145,4.16844 -0.56803,0 -1.28965,0.66942 -1.60362,1.4876 -0.48289,1.25839 -1.12226,1.16225 -4.14968,-0.62397 -1.96837,-1.16136 -3.70536,-1.94328 -3.85999,-1.7376 -0.15462,0.20568 -1.32418,1.883 -2.59902,3.72737 -2.55302,3.69359 -2.76296,3.32743 4.21556,7.35215 2.0625,1.1895 3.75,2.44444 3.75,2.78875 0,0.87519 -6.09767,7.02341 -6.86866,6.92561 -0.34724,-0.044 -3.87012,-2.18154 -7.82863,-4.75 z m 406.09807,-4.93761 c -3.13227,-5.35277 -8.16017,-13.94592 -11.17311,-19.09591 -4.37367,-7.47588 -5.20082,-9.54968 -4.10287,-10.28659 2.65543,-1.78222 6.78513,-3.8498 7.68946,-3.8498 0.96396,0 22.69669,36.85918 22.05763,37.41023 -0.20454,0.17637 -2.26283,1.49825 -4.57397,2.93752 l -4.20209,2.61684 z m 16.84591,-22.80964 -9.74669,-19.57733 3,-2.47532 c 1.65,-1.36143 4.28912,-3.16488 5.8647,-4.00766 3.3952,-1.81611 2.79293,-2.30893 21.76688,17.81102 l 11.95152,12.67337 -4.40105,3.028 -4.40104,3.028 -2.8409,-2.96526 c -2.52035,-2.63067 -3.0095,-2.79666 -4.33511,-1.47105 -1.3256,1.3256 -1.30986,1.88076 0.13949,4.92009 l 1.6337,3.42589 -3.74285,2.5938 C 715.07678,837.83279 713.0777,839 712.69294,839 c -0.38475,0 -5.08557,-8.8098 -10.44625,-19.57734 z M 714,817 c -1.1749,-1.65 -2.3421,-3 -2.59377,-3 -0.25168,0 0.24052,1.35 1.09377,3 0.85325,1.65 2.02045,3 2.59377,3 0.57333,0 0.0811,-1.35 -1.09377,-3 z M 467.5,835.95401 C 423.6467,832.30685 385.71558,821.73248 346.8816,802.32822 314.83907,786.31745 287.743,766.8006 262.4712,741.5288 209.82413,688.88173 177.43357,621.63526 169.01348,547.5 167.1616,531.19502 166.68555,506.09665 167.92166,489.93758 169.45173,469.9358 170.25465,464.5 171.67902,464.5 c 0.63487,0 1.49181,-0.3375 1.90431,-0.75 0.4125,-0.4125 7.48298,-0.75 15.71217,-0.75 h 14.96216 l -0.70632,5.25 c -3.00419,22.32975 -3.45244,54.46472 -1.04974,75.25613 7.76431,67.18748 36.54711,126.71639 84.4115,174.58077 52.17562,52.17563 118.84692,81.94188 192.2475,85.83135 116.87843,6.19336 223.42069,-56.10098 276.07426,-161.41825 3.02471,-6.05 5.81457,-12.0125 6.1997,-13.25 L 762.13478,627 H 723.06739 684 v -49.01385 -49.01386 l -32.25,0.26386 -32.25,0.26385 -0.25984,47.33127 c -0.21565,39.28095 -0.50115,47.57258 -1.67857,48.75 C 616.45055,626.69231 612.5421,627 599.54032,627 h -16.60254 l 0.28908,-88.25 0.28909,-88.25 2.69877,-7.29799 c 7.02162,-18.98774 20.71001,-33.52957 39.30116,-41.75145 12.0338,-5.32192 31.64327,-7.07718 44.02402,-3.94062 22.41307,5.67815 41.09245,23.35196 48.60673,45.99006 l 2.32351,7 0.30878,70.75 0.30878,70.75 h 43.95615 C 789.21973,592 809,592.19414 809,592.43143 c 0,0.23729 -2.25646,7.40049 -5.01436,15.91822 -16.55672,51.13527 -43.46882,95.19336 -80.90586,132.45185 C 670.2596,793.36977 600.9333,826.58618 526.5,834.98907 c -13.11975,1.48111 -46.2738,2.02334 -59,0.96494 z M 683.82646,474.75 c -0.29182,-17.20744 -0.55575,-19.74612 -2.48735,-23.92567 -7.01253,-15.17351 -24.48191,-23.12252 -40.55015,-18.45136 -7.64616,2.2228 -14.59173,8.59565 -18.33873,16.82655 -2.74409,6.02785 -2.88561,7.06805 -3.27049,24.0393 -0.22126,9.75636 -0.14134,18.41886 0.1776,19.25 0.5007,1.30482 4.96439,1.51118 32.68774,1.51118 h 32.10784 z M 248.67025,825.95526 C 247.20161,824.80003 246,823.54064 246,823.15661 c 0,-0.38403 4.69954,-7.21387 10.44343,-15.17742 L 266.88685,793.5 264.2453,791.30446 c -2.34052,-1.94534 -2.50067,-2.45816 -1.40531,-4.5 0.67994,-1.26745 2.31913,-2.81284 3.64266,-3.4342 2.14124,-1.00525 3.15633,-0.58568 9.21188,3.80756 3.74301,2.71551 7.46545,5.32133 8.27209,5.79071 1.26367,0.73533 1.27488,1.21171 0.081,3.44245 C 283.28556,797.83494 282.06308,799 281.33102,799 280.59896,799 280,799.45 280,800 c 0,1.49419 -2.1136,1.20717 -4.05615,-0.55081 -1.58521,-1.4346 -2.34033,-0.66651 -10.07699,10.25 -4.59986,6.49045 -9.75004,13.27584 -11.44486,15.07865 l -3.0815,3.27784 z M 732.10921,797.62728 C 724.34914,788.58335 718,780.86969 718,780.48581 c 0,-0.85002 4.61661,-4.55795 7.63901,-6.13542 1.68633,-0.88015 2.63137,-0.8575 4.0318,0.0967 1.00606,0.68544 3.17919,2.07309 4.82919,3.08365 2.85328,1.74753 2.8166,1.64293 -0.75,-2.13881 -2.0625,-2.18691 -3.75,-4.48303 -3.75,-5.10248 0,-0.61946 1.61553,-2.12473 3.59006,-3.34506 l 3.59005,-2.21877 2.35537,2.38721 c 1.29545,1.31297 7.76101,8.67835 14.36791,16.36752 l 12.01253,13.98029 -1.98926,2.11748 c -4.79812,5.10736 -6.17395,5.10275 -13.53852,-0.0455 -6.88546,-4.81328 -6.88504,-4.28975 0.003,3.89464 2.1402,2.54295 3.7152,4.75985 3.5,4.92645 -0.2152,0.1666 -2.02963,1.5211 -4.03206,3.01 l -3.64079,2.70708 -14.10921,-16.4435 z m -509.07316,7.91109 -2.31258,-2.46162 11.88827,-13.67733 c 16.76135,-19.28378 16.67255,-19.19077 18.88826,-19.78138 1.18347,-0.31546 2.98483,0.2831 4.41225,1.4661 l 2.41225,1.99921 -3.5123,3.70833 c -3.19979,3.37837 -6.53742,7.1023 -11.48655,12.81601 C 229.90626,805.10023 227.17241,808 225.98575,808 c -0.35042,0 -1.67778,-1.10773 -2.9497,-2.46163 z M 204.17431,787.68555 C 202.97844,786.4126 202,785.06784 202,784.6972 c 0,-0.87091 10.89193,-18.65218 12.83122,-20.9472 0.81332,-0.9625 1.13027,-1.75 0.70434,-1.75 -0.42593,0 -4.83437,3.86357 -9.79654,8.58572 l -9.02212,8.58572 -2.58875,-2.58875 -2.58876,-2.58875 3.48031,-3.37268 c 15.72977,-15.24337 28.27961,-26.58148 30.04114,-27.14057 2.19095,-0.69538 6.93916,2.71536 6.93916,4.98454 0,0.61413 -2.25,4.67978 -5,9.03477 -2.75,4.35499 -5,8.17883 -5,8.49741 0,0.31858 2.5875,-1.8461 5.75,-4.81042 6.93184,-6.49743 9.11442,-7.52632 11.5,-5.42124 0.9625,0.84932 1.75,1.89226 1.75,2.31763 C 241,759.09548 208.24373,790 207.17099,790 c -0.4523,0 -1.8008,-1.0415 -2.99668,-2.31445 z m 557.44047,-15.18642 c -11.76539,-10.8633 -14.31614,-14.56855 -13.17078,-19.13201 1.36707,-5.44687 10.67124,-11.31434 15.85911,-10.00121 1.20829,0.30584 3.77189,1.88462 5.69689,3.5084 l 3.5,2.95233 -3.43011,3.08668 c -4.08231,3.67359 -4.73569,3.74927 -7.76868,0.89992 -1.72076,-1.61656 -2.6203,-1.89415 -3.44988,-1.06457 -0.82958,0.82958 1.5475,3.68131 9.11639,10.93676 5.63121,5.39801 10.64215,9.96457 11.13542,10.1479 2.10904,0.78387 0.65231,-3.22838 -2.02513,-5.5778 -2.79715,-2.45445 -2.85377,-2.66812 -1.32524,-5.00096 0.87822,-1.34033 2.71435,-2.86187 4.08029,-3.3812 2.0694,-0.78678 2.9777,-0.47976 5.44702,1.8412 4.07071,3.82613 5.76924,8.02294 4.54994,11.24222 C 787.75447,778.43677 781.49043,783 776.04348,783 c -2.49175,0 -5.15519,-1.93839 -14.4287,-10.50087 z M 786,744.90346 c -8.525,-6.6308 -16.1229,-12.66065 -16.88423,-13.39967 -1.17243,-1.13808 -0.51275,-2.46527 4.31124,-8.67373 3.13251,-4.03153 6.00541,-7.33695 6.38423,-7.34537 0.37882,-0.008 1.29665,-0.40053 2.03963,-0.87136 0.88844,-0.563 2.06663,-0.14028 3.4418,1.2349 l 2.09094,2.09094 -3.1918,3.97178 c -1.7555,2.18447 -3.19181,4.37629 -3.19181,4.8707 0,0.49441 1.6875,2.10665 3.75,3.58275 3.56374,2.55053 3.82677,2.59571 5.29572,0.90972 0.85015,-0.97577 2.58076,-2.36735 3.84579,-3.09242 1.97505,-1.132 2.56916,-1.07477 4.20428,0.40499 2.46155,2.22767 2.41309,2.65509 -0.72363,6.38287 -2.92325,3.47409 -3.24393,2.79409 3.80048,8.05897 l 2.67264,1.99749 2.14546,-3.01301 C 807.17073,740.35585 808.78055,739 809.56809,739 810.35564,739 811,738.55 811,738 c 0,-1.52604 1.53203,-1.19953 4.08981,0.87164 l 2.31137,1.87163 -4.37071,5.37837 c -5.23666,6.44396 -9.62462,10.88586 -10.72624,10.85809 C 801.86191,756.96858 794.525,751.53426 786,744.90346 Z m -612.80412,8.13858 c -7.24343,-7.24343 -5.13114,-11.46722 12.80412,-25.60343 15.97014,-12.58735 17.44813,-13.34092 19.9972,-10.19576 2.33316,2.87874 2.57688,2.60216 -13.2359,15.02058 -9.95437,7.81757 -12.78672,10.55923 -12.55741,12.15526 0.16286,1.13349 1.01903,2.19853 1.9026,2.36678 0.88356,0.16825 7.08301,-4.00534 13.77654,-9.27463 14.17386,-11.15796 16.19281,-12.1895 18.61628,-9.5116 0.93314,1.0311 1.38455,2.37966 1.00314,2.99679 -0.83023,1.34334 -22.33166,18.48439 -27.98458,22.30945 -5.50572,3.72545 -10.42355,3.63499 -14.32199,-0.26344 z M 467.66667,677.33333 C 467.3,676.96667 467,672.10707 467,666.53422 v -10.13244 l -3.75,-1.32179 c -11.32241,-3.9909 -25.71911,-16.4307 -32.52559,-28.10448 -2.07657,-3.56153 -5.00157,-10.07551 -6.5,-14.47551 L 421.5,604.5 V 512 419.5 l 2.72441,-8 c 3.75675,-11.03138 9.08902,-19.75386 16.8835,-27.6179 C 447.17575,377.7601 461.69179,368 464.72909,368 465.67647,368 466,365.32073 466,357.47525 c 0,-10.3775 0.0359,-10.5384 2.5651,-11.5 1.4108,-0.53639 5.9108,-0.97525 10,-0.97525 H 486 v 8.40745 8.40745 l 5.75,0.40222 c 3.1625,0.22123 6.0875,0.23632 6.5,0.0335 0.4125,-0.20278 0.75,-3.88589 0.75,-8.18468 v -7.81598 l 3.125,-0.625 c 1.71875,-0.34375 6.21875,-0.625 10,-0.625 H 519 v 11.44136 11.44136 l 6.22644,3.30864 c 7.55668,4.01551 19.97267,16.12613 24.59435,23.98945 1.82643,3.10749 4.52643,8.95055 6,12.98459 L 558.5,415.5 l 0.30173,40.73629 c 0.28791,38.87122 0.21471,40.82969 -1.5987,42.77616 -1.78186,1.9126 -2.89253,2.02264 -17.80173,1.76371 L 523.5,500.5 l -0.51369,-38 c -0.49704,-36.76769 -0.58869,-38.18684 -2.82617,-43.76154 -2.8246,-7.0375 -9.78462,-14.42312 -16.66014,-17.67889 -6.75576,-3.19905 -18.32402,-3.94305 -25.29715,-1.62695 -6.73873,2.23825 -13.452,8.33817 -16.8967,15.35294 L 458.5,420.5 v 89.5 89.5 l 2.59433,5.5 c 9.6614,20.48228 36.50049,26.45781 51.49362,11.46468 C 522.05171,607.00093 523,602.18322 523,563.56741 v -30.33415 l 2.25,-0.60297 c 1.2375,-0.33164 9.3375,-0.60913 18,-0.61664 L 559,532 v 33.84004 c 0,30.40656 -0.20008,34.62235 -1.972,41.55048 -4.39314,17.17702 -15.29936,31.82419 -31.278,42.00671 l -5.75,3.66423 v 10.46927 C 520,677.22019 519.35327,678 508,678 h -8 v -9.04772 -9.04771 l -6.25,0.29771 -6.25,0.29772 -0.30088,6.97748 C 486.78593,677.05981 485.78632,678 476.01168,678 c -4.22309,0 -7.97835,-0.3 -8.34501,-0.66667 z m 381.37599,-22.89019 -4.87165,-4.55687 -6.08544,1.25693 c -8.34482,1.72359 -9.07845,0.76666 -5.24071,-6.83588 l 2.99818,-5.93936 -2.90447,-4.93398 c -3.6098,-6.13218 -3.62588,-7.0272 -0.15845,-8.82027 2.14833,-1.11095 3.90952,-1.22117 7.75,-0.48503 l 4.96988,0.95263 3.55777,-4.07607 c 2.45483,-2.81245 4.46505,-4.1426 6.48439,-4.29066 2.83389,-0.20778 2.95902,-0.0245 3.94921,5.78542 l 1.02259,6 5.99302,3.06922 c 3.29616,1.68806 5.99302,3.67664 5.99302,4.41904 0,0.74241 -2.56556,2.73626 -5.70125,4.43079 -5.66318,3.06038 -5.70568,3.11766 -6.36635,8.58095 -0.62135,5.1382 -3.36805,10 -5.64956,10 -0.47768,0 -3.06077,-2.05059 -5.74018,-4.55686 z m -721.43567,1.97507 c -0.33385,-0.86998 -0.61313,-3.00748 -0.62064,-4.75 -0.0251,-5.81032 -0.96471,-7.24096 -6.55765,-9.984 -7.29003,-3.57536 -7.18216,-5.4784 0.51921,-9.15931 5.93144,-2.83497 5.9497,-2.8572 6.59602,-8.03023 0.76036,-6.08572 1.08179,-6.65142 4.67613,-8.22994 2.58158,-1.13375 2.9347,-0.94001 6.93642,3.8058 2.31901,2.7502 4.73694,4.80061 5.37318,4.55646 0.63624,-0.24415 3.70234,-0.76195 6.81357,-1.15067 6.88086,-0.85971 7.24501,0.22127 2.6114,7.75184 l -3.04537,4.94935 3.13283,5.55106 3.13282,5.55106 -2.3703,2.3703 c -2.25239,2.2524 -2.65225,2.31368 -8.03837,1.23199 l -5.66807,-1.13831 -4.68987,4.1282 c -4.94082,4.34908 -7.79291,5.17425 -8.80131,2.5464 z m 196.75227,-25.44676 c -14.34536,-1.93036 -27.62192,-8.50976 -38.3371,-18.99852 -11.4212,-11.17987 -18.2028,-25.15065 -20.0824,-41.37176 C 265.42347,566.14553 265.01404,533.925 265.02993,499 l 0.0289,-63.5 -44.4074,-0.5 -44.4074,-0.5 3.81209,-13.06101 C 192.08488,380.22586 212.35376,341.4747 239.65215,307.5 282.773,253.83319 348.30286,212.14173 415.5,195.62194 c 30.40917,-7.47581 44.65595,-9.08765 80,-9.051 33.0369,0.0343 44.53952,1.23767 72.5,7.58497 94.18626,21.38119 175.15456,85.76674 217.98955,173.34409 16.034,32.78197 25.04843,62.47278 30.6646,101 2.25048,15.43837 2.52436,62.17501 0.46782,79.83032 -1.89565,16.27408 -1.26094,15.79792 -20.58724,15.44457 -9.31061,-0.17023 -14.97412,-0.65562 -14.87553,-1.27489 4.2207,-26.51282 5.07682,-63.84494 1.98364,-86.5 C 776.60308,424.43929 759.13007,380.0386 730.12272,340 648.82425,227.78441 501.11776,187.38017 374.17585,242.63285 320.88339,265.8289 272.83167,308.29052 242.67321,358.83713 236.2718,369.5661 222,397.6121 222,399.46274 222,399.75823 239.98785,400 261.97301,400 h 39.97301 l 0.27699,85.25 0.27699,85.25 2.7548,5.60948 c 7.61179,15.49957 25.66468,23.54464 41.06126,18.29849 6.32459,-2.155 13.63641,-8.97347 17.22512,-16.06289 L 366.5,572.5 l 0.27674,-85.64036 0.27674,-85.64036 2.22326,-0.59599 c 1.22279,-0.32779 9.56083,-0.60213 18.52897,-0.60964 L 404.11143,400 l -0.37234,86.25 c -0.41326,95.73154 -0.0332,90.21127 -7.24715,105.25 -12.64349,26.3574 -43.62041,43.30816 -72.13268,39.47145 z M 107.34123,548.44686 c -0.32779,-0.85423 -0.092,-4.06289 0.52408,-7.13037 l 1.12006,-5.57722 -4.49268,-3.95462 C 102.02171,529.60961 100,527.05867 100,526.1159 c 0,-1.81934 3.66179,-3.44026 10.36423,-4.58779 3.43921,-0.58883 4.083,-1.17943 5.85336,-5.36973 1.76835,-4.18557 5.09026,-7.15838 7.999,-7.15838 0.44983,0 2.05482,2.5875 3.56665,5.75 l 2.74878,5.75 6.47615,1.03042 c 8.1892,1.30299 8.63683,2.85162 2.40885,8.33371 l -4.68038,4.11984 1.21759,6.18891 c 1.17947,5.99512 1.14445,6.24518 -1.11832,7.98578 -3.06907,2.36084 -3.47931,2.31145 -9.3102,-1.12078 l -4.97429,-2.92801 -5.14744,2.94507 c -5.85658,3.35079 -7.22069,3.58629 -8.06275,1.39192 z M 849.7572,548.75 c -0.25123,-0.6875 0.0666,-3.82462 0.70641,-6.97139 l 1.16319,-5.72139 -4.8134,-4.74102 C 844.16603,528.70864 842,526.25373 842,525.86083 c 0,-1.08224 6.02265,-3.85898 8.40364,-3.87448 4.67431,-0.0304 6.37243,-1.23818 8.68589,-6.1775 2.07026,-4.42009 4.80383,-6.80885 7.7917,-6.80885 0.41307,0 2.02794,2.67159 3.58859,5.93687 l 2.83757,5.93686 6.36021,0.68112 c 3.49811,0.37462 6.63212,1.12109 6.96446,1.65883 0.33234,0.53773 -1.55591,3.17084 -4.19611,5.85135 l -4.80037,4.87365 1.17033,6.28066 c 1.12002,6.01068 1.07412,6.35493 -1.06779,8.00842 -2.94348,2.27229 -3.35357,2.22376 -9.40492,-1.11301 l -5.16681,-2.84902 -5.24296,2.86714 c -5.77271,3.15682 -7.48004,3.49492 -8.16623,1.61713 z M 136.98684,443.52555 132.5,439.05111 l -6,1.4142 c -4.94291,1.16505 -6.23478,1.18375 -7.33261,0.10612 -1.10788,-1.08749 -0.83611,-2.28998 1.61156,-7.13054 l 2.94417,-5.82246 -2.86156,-4.85322 C 119.2877,420.09594 118,417.27262 118,416.49118 c 0,-2.54555 3.94651,-3.75556 10.01107,-3.06944 5.54918,0.62782 5.80867,0.54855 8.63289,-2.63723 3.31188,-3.73588 7.68663,-6.31626 9.16229,-5.40425 0.54833,0.33888 1.31745,3.37753 1.70916,6.75255 l 0.71221,6.13639 5.88619,2.60154 c 3.56093,1.57383 5.88619,3.21891 5.88619,4.16437 0,0.85956 -1.85181,2.6658 -4.11514,4.01386 C 149.13074,433.0718 148,434.54556 148,439.32569 c 0,3.22862 -0.58698,4.87712 -2.31445,6.5 -1.27295,1.19587 -2.74137,2.17431 -3.26316,2.17431 -0.52179,0 -2.96778,-2.0135 -5.43555,-4.47445 z M 840.2,445.8 c -0.66,-0.66 -1.2,-3.16458 -1.2,-5.56574 0,-5.93662 -1.01451,-7.43081 -6.92487,-10.19907 -7.04912,-3.30163 -6.8327,-5.42655 0.89214,-8.75965 l 5.96727,-2.57474 0.66084,-5.84107 c 0.59471,-5.25657 0.97324,-5.99722 3.78273,-7.40155 l 3.12189,-1.56048 4.38781,4.6388 4.38782,4.6388 6.86218,-0.68914 c 8.14168,-0.81764 8.44124,-0.25224 3.92474,7.40775 l -2.93744,4.98192 3.10013,5.72377 3.10013,5.72378 -2.62403,2.25709 c -2.49812,2.1488 -2.89252,2.19469 -8.21939,0.95642 l -5.59536,-1.30069 -5.13353,4.3819 C 842.0928,447.44961 841.9217,447.5217 840.2,445.8 Z M 797.97153,337.86084 c -2.87199,-4.47718 -4.76697,-8.38438 -4.23493,-8.73189 15.88736,-10.37734 36.24788,-23.04987 37.76514,-23.50529 1.64909,-0.49499 2.85211,0.73292 6.82869,6.96996 4.53655,7.11533 4.7176,7.65077 3.00929,8.89992 -0.99971,0.73101 -2.22965,1.07448 -2.7332,0.76328 -0.50355,-0.31121 -0.65012,-0.13638 -0.32571,0.38852 0.3244,0.5249 -0.27085,1.49185 -1.32277,2.14879 -1.69637,1.05941 -2.28762,0.63757 -5.22976,-3.73126 l -3.31716,-4.9257 -3.20556,2.02962 C 823.4425,319.28308 822,320.4366 822,320.73017 c 0,0.29357 0.95133,2.07305 2.11407,3.9544 1.16273,1.88134 1.95023,3.53823 1.75,3.68195 -0.20024,0.14373 -1.66226,1.24506 -3.24893,2.44741 -3.85287,2.91961 -4.7235,2.76597 -7.35583,-1.29808 l -2.24068,-3.45939 -3.50932,2.07055 c -3.46908,2.04681 -4.45676,4.1694 -2.5022,5.37739 0.55391,0.34233 1.70719,1.97621 2.56283,3.63085 1.77809,3.43845 1.00778,4.99752 -3.66243,7.41258 l -2.73816,1.41596 z m -639.21342,-5.9872 -15.74189,-10.09251 1.5665,-2.65188 c 0.86158,-1.45853 2.61823,-3.14822 3.90367,-3.75485 2.08271,-0.98288 3.92683,-0.0834 16.93796,8.26132 8.03044,5.15035 14.82014,9.36428 15.08822,9.36428 0.26809,0 0.48606,-0.7875 0.48438,-1.75 -0.003,-1.46551 -10.65409,-8.89813 -29.18801,-20.3673 -0.62451,-0.38646 -0.38542,-1.80102 0.63935,-3.7827 0.90029,-1.74096 2.03663,-2.91834 2.5252,-2.61638 0.48857,0.30195 1.18993,0.061 1.55856,-0.53548 0.36864,-0.59647 1.30803,-0.83975 2.08754,-0.54062 2.79879,1.07399 26.93883,16.87326 29.63041,19.39262 4.87226,4.56051 3.03341,12.7366 -3.8913,17.30197 -5.55861,3.66473 -8.54944,2.70343 -25.60059,-8.22847 z m 28.69597,-31.19412 c -7.72526,-6.14874 -15.29795,-12.17196 -16.8282,-13.38495 l -2.78227,-2.20543 2.78274,-3.4875 c 3.62526,-4.54339 6.35015,-5.13395 12.16366,-2.63622 l 4.70999,2.02361 -2.5,-2.11298 c -1.375,-1.16214 -3.54162,-2.93484 -4.81471,-3.93934 -1.90004,-1.49917 -2.12254,-2.18545 -1.24196,-3.83082 0.59002,-1.10246 2.30664,-2.60266 3.81471,-3.33379 2.67364,-1.2962 3.15306,-1.00694 19.24196,11.60973 9.075,7.11647 16.64896,13.05331 16.83102,13.19296 0.7818,0.5997 -2.05147,4.44599 -4.62475,6.27833 l -2.7978,1.99221 -7.70423,-3.3501 C 199.46691,295.65268 196,294.29306 196,294.47386 c 0,0.1808 3.11168,2.7018 6.91485,5.60221 6.8219,5.20259 6.89247,5.30432 5.25,7.56728 -0.91567,1.26159 -2.22735,2.30794 -2.91485,2.32523 C 204.5625,309.98586 204,310.45 204,311 c 0,2.2944 -3.22018,0.28582 -16.54592,-10.32048 z m 590.39012,8.06551 C 774.55312,305.96297 773,302.96102 773,299.3819 c 0,-3.34511 5.50358,-8.89198 18.45998,-18.60518 13.04508,-9.77969 19.77085,-10.13208 23.98256,-1.25657 2.22068,4.67975 1.18814,7.75473 -4.1951,12.49325 -5.29352,4.65954 -6.44636,4.85815 -8.6528,1.4907 -1.58554,-2.41985 -1.53677,-2.584 1.60084,-5.38746 2.79517,-2.49748 3.05383,-3.11132 1.89792,-4.5041 -0.73606,-0.8869 -1.84569,-1.60569 -2.46584,-1.59732 -1.34321,0.0181 -18.79762,13.63696 -19.87915,15.51075 -1.9874,3.44319 2.02875,5.84403 5.17285,3.09231 2.90589,-2.54325 5.62445,-2.77775 7.54897,-0.65117 2.21352,2.44591 1.4321,3.60368 -5.38464,7.97797 -5.649,3.62495 -9.61601,3.86461 -13.24139,0.79995 z m -23.23368,-27.62968 -2.74896,-2.86929 5.74545,-9.37303 c 3.16,-5.15517 6.34115,-10.08346 7.06922,-10.95177 0.72808,-0.86831 1.32377,-1.94496 1.32377,-2.39257 0,-0.4476 -4.03438,3.07533 -8.96529,7.82874 -4.93092,4.75341 -9.58617,8.64257 -10.34502,8.64257 -0.75884,0 -2.2362,-0.9464 -3.283,-2.10311 -1.90067,-2.10021 -1.88259,-2.12296 13.09501,-16.48438 8.24906,-7.9097 16.2615,-15.04163 17.80542,-15.84874 2.69068,-1.4066 2.9248,-1.33576 5.64428,1.70786 l 2.83716,3.17534 -2.73647,4.02651 c -1.50507,2.21459 -4.00347,6.27652 -5.55201,9.02652 l -2.81553,5 5.90773,-5.68676 c 6.7732,-6.51986 10.14775,-7.86297 12.69203,-5.05158 1.62608,1.7968 1.06063,2.4765 -13.56549,16.30665 -21.30922,20.14954 -18.83388,18.4648 -22.1083,15.04704 z M 213.43374,265.57626 197.5,250.17512 200,247.69027 c 4.95958,-4.92952 5.29841,-4.75696 21.94995,11.17853 15.29311,14.63547 15.43016,14.80516 13.5,16.71523 -6.25189,6.18683 -4.38235,7.03665 -22.01621,-10.00777 z m 28.05532,-19.12363 c -5.49398,-6.35105 -10.8024,-12.50781 -11.79648,-13.68169 -1.76901,-2.08897 -1.87215,-2.09608 -4.85416,-0.33457 -2.9858,1.76376 -3.08965,1.75597 -5.19258,-0.38962 l -2.14584,-2.18938 7,-6.42835 c 3.85,-3.53559 8.35,-7.12547 10,-7.97752 2.83996,-1.46653 3.09533,-1.43152 4.78708,0.65624 1.7357,2.142 1.71512,2.28052 -0.71552,4.81757 l -2.50261,2.61215 12.13891,13.91186 12.1389,13.91186 -3.83999,3.31941 C 254.39478,256.50627 252.39933,258 252.07245,258 c -0.32688,0 -5.0894,-5.19632 -10.58339,-11.54737 z m 484.31895,6.47454 -2.692,-2.00947 2.04465,-3.46543 2.04466,-3.46543 -2.35266,-1.96015 c -2.97422,-2.47802 -3.32842,-2.47415 -6.77483,0.0739 -2.72117,2.01185 -2.95179,2.02811 -5.45951,0.38499 -1.44008,-0.94357 -2.58389,-2.00134 -2.5418,-2.35058 0.15353,-1.27404 31.7826,-29.53873 33.95337,-30.34175 1.70222,-0.62969 3.05421,-0.20374 5.65874,1.78283 1.88218,1.43561 3.28472,3.14672 3.11676,3.80247 -0.8565,3.34383 -20.48298,37.57685 -21.55539,37.59745 -0.6875,0.0132 -1.25,0.474 -1.25,1.024 0,1.47836 -1.17823,1.17683 -4.19199,-1.07283 z m 10.0132,-24.19381 3.3212,-6.23336 -5.3212,5.27643 c -4.35376,4.31713 -5.04849,5.45066 -3.82121,6.23469 2.24388,1.43347 2.24678,1.43084 5.82121,-5.27776 z m -471.79407,-7.73598 c -6.65172,-9.35448 -12.28545,-17.56822 -12.5194,-18.25276 -0.42808,-1.2526 12.56702,-10.9988 16.20466,-12.15334 1.28897,-0.4091 2.60052,0.097 3.86113,1.48997 2.10813,2.32945 2.09137,2.3538 -5.35593,7.77877 l -2.6274,1.91393 2.8766,3.86302 c 1.58212,2.12467 3.02936,4.05556 3.21608,4.29088 0.18672,0.23532 2.14618,-0.58756 4.35435,-1.82862 l 4.01486,-2.25647 1.95124,2.32862 1.95125,2.32862 -3.63276,3.1304 -3.63277,3.1304 2.16756,3.50718 c 3.55755,5.75625 4.19512,5.94388 9.0708,2.66933 2.40545,-1.61552 4.64334,-2.92317 4.97307,-2.90589 0.32974,0.0173 1.39895,1.13025 2.37603,2.47325 l 1.7765,2.44183 -7.2765,5.36842 c -12.42191,9.16457 -9.90511,10.15198 -23.74937,-9.31754 z m 428.41599,6.70736 -2.69102,-2.31471 12.58826,-17.56905 c 13.1548,-18.35977 15.09229,-20.07796 19.43319,-17.23369 l 2.3184,1.51907 -5.73748,8.19682 c -12.98145,18.54587 -19.28252,26.95811 -21.19698,28.29906 -1.80695,1.26563 -2.31118,1.16964 -4.71437,-0.8975 z M 296.5947,197.85223 c -10.08753,-17.66672 -10.76589,-19.18339 -9.04626,-20.22557 13.37706,-8.1071 18.50824,-9.29836 22.5652,-5.23872 3.59598,3.59836 15.88636,25.8716 15.88636,28.79005 0,3.74152 -3.27962,7.30472 -10.87848,11.81912 -3.70582,2.20159 -6.93668,3.9919 -7.17969,3.97846 -0.24301,-0.0134 -5.34921,-8.61894 -11.34713,-19.12334 z m 18.62028,4.8324 c -0.15677,-0.88433 -3.02688,-6.38638 -6.37802,-12.22677 -5.58319,-9.73039 -8.02109,-12.60706 -9.46256,-11.1656 -0.87277,0.87278 13.92636,25.77613 15.07664,25.37032 0.57693,-0.20354 0.9207,-1.09361 0.76394,-1.97795 z M 668,212.79431 c -3.575,-2.13837 -7.09217,-4.23887 -7.81593,-4.66778 -0.98514,-0.5838 1.41476,-5.50345 9.54688,-19.5706 5.97455,-10.33492 11.11006,-18.62543 11.41224,-18.42335 0.30218,0.20208 1.26347,-0.22519 2.13619,-0.94948 1.32513,-1.09976 2.00681,-1.04169 4.13417,0.35222 2.96208,1.94082 3.61826,0.21053 -7.06679,18.63436 -4.04134,6.96833 -7.59855,13.32289 -7.9049,14.12124 -0.37044,0.96534 0.96958,2.3462 4.00056,4.12247 4.9018,2.87264 5.14709,3.29306 3.25943,5.58661 -4.03178,4.89871 -4.75759,4.94798 -11.70185,0.79431 z m -32.43425,-16.34708 c -3.81384,-1.87187 -7.34418,-3.54004 -7.8452,-3.70705 -0.50102,-0.167 3.14111,-9.28937 8.09363,-20.27191 4.95252,-10.98255 9.2012,-19.74327 9.4415,-19.46827 0.24031,0.275 1.18069,-0.11726 2.08972,-0.87169 1.32974,-1.10359 2.21837,-1.13743 4.54632,-0.17316 l 2.89353,1.19854 -7.39262,16.42046 C 643.32668,178.60541 640,186.37748 640,186.84543 c 0,0.46795 1.82174,1.67231 4.04831,2.67635 2.22657,1.00405 4.25479,2.15963 4.50715,2.56796 0.73293,1.1859 -1.4591,6.08785 -2.4488,5.47618 -0.4934,-0.30494 -1.15512,0.11798 -1.47049,0.93982 -0.75363,1.96393 -0.97918,1.91274 -9.07042,-2.05851 z M 353.3083,191.9904 c -1.20544,-0.48555 -2.85995,-1.91953 -3.67668,-3.18661 C 347.07994,184.84513 338,161.09836 338,158.38363 c 0,-3.49534 5.53472,-8.86434 10.74812,-10.42631 5.63025,-1.68687 9.68352,0.008 12.30459,5.14599 1.07101,2.09936 1.94729,4.20208 1.94729,4.67271 0,0.80647 -7.08017,5.22398 -8.37273,5.22398 -0.33024,0 -1.25851,-1.575 -2.06282,-3.5 C 351.09818,155.99072 349,154.76328 349,157.41478 c 0,1.80034 8.9019,24.77207 10.08259,26.01855 1.71896,1.81474 2.2221,-0.47301 1.00063,-4.54989 -1.38997,-4.6393 -1.10449,-5.14401 4.15058,-7.33793 l 3.7338,-1.55881 1.5162,3.62877 c 2.41457,5.77887 1.97868,10.57765 -1.2338,13.58328 -5.419,5.07008 -10.33591,6.64688 -14.9417,4.79165 z M 605.75,185.31067 c -1.32524,-0.34632 -1.75,-1.50344 -1.75,-4.76736 0,-3.61183 -0.35975,-4.40412 -2.2207,-4.89077 -1.62535,-0.42504 -3.01983,0.23663 -5.20148,2.46807 -2.43348,2.48902 -3.5271,2.93953 -5.95638,2.45368 -1.63658,-0.32732 -3.11849,-0.73801 -3.29313,-0.91265 -0.17464,-0.17464 3.86472,-9.2391 8.97636,-20.14326 10.3531,-22.08522 10.80798,-22.58671 18.52745,-20.42539 4.1111,1.15103 4.30583,1.37179 3.80198,4.31009 -0.29208,1.70331 -1.52194,11.53442 -2.73303,21.84692 C 614.2589,179.23322 613.356,184 612.34955,184 611.6073,184 611,184.45 611,185 c 0,1.01576 -2.08074,1.13889 -5.25,0.31067 z M 606.01365,164.75 c 0.008,-1.2375 0.25739,-3.375 0.55529,-4.75 0.43773,-2.02041 0.1554,-1.82858 -1.47174,1 -2.42726,4.21949 -2.60448,6 -0.5972,6 0.88484,0 1.5056,-0.92274 1.51365,-2.25 z M 382.62517,161.00698 C 379.53133,150.01082 377,140.39848 377,139.64622 c 0,-1.85853 12.94885,-5.85331 17.69216,-5.45812 2.94913,0.24572 4.21711,1.0171 5.97538,3.63516 2.73708,4.0755 4.06472,11.77456 2.4706,14.32716 -1.47684,2.36479 -1.43485,2.84958 0.24685,2.84958 2.01517,0 4.00975,3.56731 6.39309,11.43405 1.96206,6.47621 1.98922,7.01782 0.41134,8.2027 -2.09276,1.57153 -6.82228,2.70819 -8.06718,1.9388 -0.5096,-0.31495 -1.88354,-3.7233 -3.05318,-7.5741 C 397.75573,164.67759 396.40678,162 395.5418,162 c -1.14859,0 -1.05344,1.21407 0.52878,6.74682 1.06118,3.71075 1.92942,7.25947 1.92942,7.88606 0,1.24601 -5.91469,4.36712 -8.27596,4.36712 -1.06155,0 -3.04687,-5.59139 -7.09887,-19.99302 z M 393.1633,148.15072 C 391.91152,143.97264 389,140.51005 389,143.19942 c 0,0.79436 0.72942,3.58504 1.62094,6.2015 1.1291,3.31373 1.93862,4.43952 2.6679,3.71024 0.72929,-0.72929 0.6912,-2.23443 -0.12554,-4.96044 z M 548,171.73102 c -2.4251,-0.85296 -4.04846,-2.3528 -5.28584,-4.88366 -1.74212,-3.56319 -1.72336,-3.99756 0.76607,-17.73821 1.40355,-7.74707 3.08335,-15.25198 3.7329,-16.67757 1.44233,-3.16558 7.54053,-6.43291 11.99703,-6.42784 4.39814,0.005 9.57617,3.29674 10.40964,6.61756 0.74595,2.97209 -3.11565,27.07142 -5.12438,31.98004 -2.51672,6.15 -10.03803,9.40087 -16.49542,7.12968 z m 7.01386,-7.98102 c 0.008,-0.1375 1.08206,-6.1 2.38765,-13.25 1.66572,-9.12233 2.08138,-13.55402 1.39349,-14.85736 -0.54117,-1.02537 -1.3592,-1.47331 -1.82619,-1 -1.25845,1.27549 -5.38359,25.83408 -4.6573,27.72676 0.50011,1.30328 2.64586,2.39951 2.70235,1.3806 z m -122.4564,6 c -0.20888,-0.6875 -0.91276,-4.175 -1.56418,-7.75 -0.78981,-4.33446 -3.31811,-10.69928 -7.58884,-19.10437 C 419.882,135.96322 417,130.00072 417,129.64563 417,129.29053 417.6375,129 418.41667,129 c 0.77916,0 1.56666,-0.37867 1.75,-0.84149 0.18333,-0.46281 1.81952,-1.1313 3.63598,-1.48553 3.25476,-0.6347 3.34308,-0.55361 6.09003,5.59149 l 2.78738,6.23553 0.68317,-6.01616 c 0.72084,-6.3479 1.20445,-6.86019 8.49168,-8.99525 2.24639,-0.65816 2.32798,-0.51251 1.77069,3.16073 -2.68081,17.66984 -3.04396,30.85129 -1.06696,38.72829 0.48315,1.92504 -0.0156,2.61136 -2.88845,3.97461 -4.14392,1.96641 -6.59451,2.10346 -7.11273,0.39778 z m 78.54907,-2.47453 c -2.3636,-0.44653 -2.38585,-0.5603 -1.78321,-9.11382 0.33565,-4.76391 0.91229,-12.98742 1.28143,-18.27448 l 0.67117,-9.61283 -3.73784,-0.70122 c -3.23031,-0.60601 -3.65824,-0.99803 -3.15162,-2.88717 0.32243,-1.20227 0.59238,-2.79659 0.59989,-3.54294 0.008,-0.79322 0.63683,-1.11785 1.51365,-0.78138 0.825,0.31658 1.5,0.0912 1.5,-0.50088 0,-0.74552 3.15138,-0.85485 10.25,-0.3556 5.6375,0.39648 10.51247,0.87521 10.83327,1.06384 1.17255,0.68944 -0.34231,6.43101 -1.69677,6.43101 -0.76257,0 -1.3865,0.45 -1.3865,1 0,0.55 -0.89143,1 -1.98095,1 -2.46043,0 -2.62631,0.80221 -3.85805,18.65783 -0.84609,12.26508 -1.25636,14.43753 -3.06883,16.25 -1.15069,1.15069 -2.42967,2.03089 -2.84217,1.95599 -0.4125,-0.0749 -1.82706,-0.33966 -3.14347,-0.58835 z M 465,157.157 c 0,-5.41365 -0.27484,-15.20115 -0.61075,-21.75 l -0.61076,-11.907 2.81012,-1.25 c 1.54557,-0.6875 5.68002,-1.25 9.18768,-1.25 5.71554,0 6.68098,0.30342 9.30063,2.92308 2.75406,2.75406 2.92308,3.39581 2.92308,11.09879 0,7.85557 -0.12155,8.28925 -3.104,11.07528 -1.70719,1.59476 -4.51969,3.27225 -6.25,3.72776 -3.11892,0.82106 -3.146,0.88395 -3.146,7.30474 0,7.67175 -1.54333,9.87035 -6.92857,9.87035 H 465 Z m 13,-20.53456 c 0,-3.56009 -0.50696,-5.79829 -1.5,-6.62244 -1.30765,-1.08525 -1.5,-0.39568 -1.5,5.37756 0,5.21995 0.31767,6.62244 1.5,6.62244 1.14738,0 1.5,-1.26417 1.5,-5.37756 z"
       id="path22" />
  </g>
</svg>
