<?xml version="1.0" encoding="UTF-8" standalone="no"?>
<!-- Generator: Adobe Illustrator 23.0.6, SVG Export Plug-In . SVG Version: 6.00 Build 0)  -->

<svg
   xmlns:dc="http://purl.org/dc/elements/1.1/"
   xmlns:cc="http://creativecommons.org/ns#"
   xmlns:rdf="http://www.w3.org/1999/02/22-rdf-syntax-ns#"
   xmlns:svg="http://www.w3.org/2000/svg"
   xmlns="http://www.w3.org/2000/svg"
   xmlns:sodipodi="http://sodipodi.sourceforge.net/DTD/sodipodi-0.dtd"
   xmlns:inkscape="http://www.inkscape.org/namespaces/inkscape"
   version="1.1"
   id="Layer_1"
   x="0px"
   y="0px"
   viewBox="0 0 466.72397 537.11981"
   xml:space="preserve"
   sodipodi:docname="__2023.svg"
   inkscape:version="0.92.3 (2405546, 2018-03-11)"
   width="466.72397"
   height="537.11981"><metadata
   id="metadata51"><rdf:RDF><cc:Work
       rdf:about=""><dc:format>image/svg+xml</dc:format><dc:type
         rdf:resource="http://purl.org/dc/dcmitype/StillImage" /><dc:title></dc:title></cc:Work></rdf:RDF></metadata><defs
   id="defs49" /><sodipodi:namedview
   pagecolor="#ffffff"
   bordercolor="#666666"
   borderopacity="1"
   objecttolerance="10"
   gridtolerance="10"
   guidetolerance="10"
   inkscape:pageopacity="0"
   inkscape:pageshadow="2"
   inkscape:window-width="1869"
   inkscape:window-height="1055"
   id="namedview47"
   showgrid="false"
   inkscape:zoom="0.82314815"
   inkscape:cx="382.3361"
   inkscape:cy="336.09153"
   inkscape:window-x="51"
   inkscape:window-y="0"
   inkscape:window-maximized="1"
   inkscape:current-layer="Layer_1"
   inkscape:snap-object-midpoints="false"
   inkscape:snap-center="false"
   fit-margin-top="0"
   fit-margin-left="0"
   fit-margin-right="0"
   fit-margin-bottom="0" />
<style
   type="text/css"
   id="style2">
	.st0{fill:#FFFFFF;}
	.st1{fill:#F4F4F6;}
	.st2{fill:url(#SVGID_1_);}
</style>
<g
   id="Layer_2"
   transform="translate(-448.89,-338.97171)">
</g>
<path
   class="st0"
   d="m -3429.36,-3087.5717 h -37.84 l -28.52,-49.78 -3.04,-1.64 0.35,-9.53 2.69,-0.91 30.25,-52.8 c 0,0 21.13,0 36.11,0 22.69,53.41 0,114.66 0,114.66 z"
   id="path5"
   inkscape:connector-curvature="0"
   style="fill:#ffffff" />
<path
   class="st0"
   d="m -3773.17,-3202.0417 h 37.84 l 28.5,49.74 2.91,1.23 0.1,10.14 -3.03,0.82 -30.21,52.72 c 0,0 -21.13,0 -36.11,0 -22.69,-53.4 0,-114.65 0,-114.65 z"
   id="path7"
   inkscape:connector-curvature="0"
   style="fill:#ffffff" />
<path
   class="st0"
   d="m -3667.1,-3314.1017 65.83,26.38 65.45,-25.72 c 0,0.01 -56.16,-27.31 -131.28,-0.66 z"
   id="path9"
   inkscape:connector-curvature="0"
   style="fill:#ffffff" />
<path
   class="st0"
   d="m -3667.1,-2975.5617 65.83,-26.38 65.45,25.72 c 0,-0.01 -56.16,27.3 -131.28,0.66 z"
   id="path11"
   inkscape:connector-curvature="0"
   style="fill:#ffffff" />
<g
   id="g1810"
   transform="translate(-448.89,-338.97171)"><g
     inkscape:export-ydpi="96"
     inkscape:export-xdpi="96"
     id="g44"
     transform="matrix(0.93489901,0,0,0.93489901,-175.42653,57.034406)">
	
	<linearGradient
   y2="1069.4055"
   x2="918.64697"
   y1="317.62201"
   x1="918.64697"
   gradientUnits="userSpaceOnUse"
   id="SVGID_1_">
		<stop
   id="stop29"
   style="stop-color:#3FDFF0"
   offset="0" />
		<stop
   id="stop31"
   style="stop-color:#3CD6F1"
   offset="0.1179" />
		<stop
   id="stop33"
   style="stop-color:#32BEF2"
   offset="0.3091" />
		<stop
   id="stop35"
   style="stop-color:#2397F4"
   offset="0.5499" />
		<stop
   id="stop37"
   style="stop-color:#0E61F8"
   offset="0.8281" />
		<stop
   id="stop39"
   style="stop-color:#003CFA"
   offset="1" />
	</linearGradient>
	<path
   id="path42"
   d="m 1131.15,776.34 c 0.43,-0.74 1,-2.25 -0.02,-4.03 l -130.95,-228.55 1.16,-2.03 134.1,-234.04 c 1.02,-1.78 0.45,-3.29 0.03,-4.03 -1.03,-1.78 -3.1,-2.57 -5.07,-1.79 L 920.09,385.11 709.77,301.87 c -1.96,-0.78 -4.03,0.02 -5.06,1.8 -0.43,0.74 -1,2.25 0.02,4.03 l 130.95,228.55 -1.16,2.03 -132.67,231.52 c -1.02,1.78 -0.45,3.29 -0.02,4.03 1.02,1.76 3.07,2.56 5.03,1.81 l 208.93,-80.73 210.3,83.23 c 1.96,0.76 4.03,-0.02 5.06,-1.8 z M 754.92,346.07 909.57,407.28 849.78,511.63 Z m 141.11,330.22 -144.35,55.78 188.21,-328.48 145.35,-57.53 z m 30.25,-3.56 59.79,-104.35 94.86,165.55 z"
   class="st2"
   style="fill:url(#SVGID_1_)"
   inkscape:connector-curvature="0" />
<flowRoot
   style="font-style:normal;font-weight:normal;font-size:40px;line-height:1.25;font-family:sans-serif;letter-spacing:0px;word-spacing:0px;fill:#000000;fill-opacity:1;stroke:none"
   id="flowRoot860"
   xml:space="preserve"><flowRegion
     id="flowRegion862"><rect
       y="793.00415"
       x="659.91858"
       height="146.07573"
       width="501.81311"
       id="rect864" /></flowRegion><flowPara
     id="flowPara866"></flowPara></flowRoot><text
   id="text870"
   y="860.5603"
   x="662.86847"
   style="font-style:normal;font-weight:normal;font-size:40px;line-height:1.25;font-family:sans-serif;letter-spacing:0px;word-spacing:0px;fill:#000000;fill-opacity:1;stroke:none"
   xml:space="preserve"><tspan
     style="font-size:74.66666412px"
     y="860.5603"
     x="662.86847"
     id="tspan868"
     sodipodi:role="line">SkyBanx Coin</tspan></text>
</g></g>
</svg>