<?xml version="1.0" encoding="utf-8"?>
<!-- Generator: Adobe Illustrator 23.0.1, SVG Export Plug-In . SVG Version: 6.00 Build 0)  -->
<svg version="1.1" id="Слой_1" xmlns="http://www.w3.org/2000/svg" xmlns:xlink="http://www.w3.org/1999/xlink" x="0px" y="0px"
	 viewBox="0 0 141.7 141.7" style="enable-background:new 0 0 141.7 141.7;" xml:space="preserve">
<style type="text/css">
	.st0{fill:#FFFFFF;}
</style>
<circle cx="70.9" cy="70.9" r="70.9"/>
<path class="st0" d="M110.7,37.8H98.9v59.5c0,0-0.3,0.3-0.3,0.3l0,0H70.1c-8.3,0-15.2-2.9-20.6-8.7c-5.5-5.8-8.2-13.2-8.2-22.4V37.8
	H29.4v28.7c0,12.5,3.8,22.7,11.5,30.5c7.7,7.8,17.4,11.7,29.1,11.7c11,0,20.2-3.5,27.7-10.3v9.9h12.5V96.4H99.8
	c7.3-7.7,11-17.7,11-29.9V37.8z"/>
</svg>
