<?xml version="1.0" encoding="UTF-8" standalone="no"?>
<svg
   xmlns:dc="http://purl.org/dc/elements/1.1/"
   xmlns:cc="http://creativecommons.org/ns#"
   xmlns:rdf="http://www.w3.org/1999/02/22-rdf-syntax-ns#"
   xmlns:svg="http://www.w3.org/2000/svg"
   xmlns="http://www.w3.org/2000/svg"
   xmlns:xlink="http://www.w3.org/1999/xlink"
   xmlns:sodipodi="http://sodipodi.sourceforge.net/DTD/sodipodi-0.dtd"
   xmlns:inkscape="http://www.inkscape.org/namespaces/inkscape"
   width="226"
   height="33"
   viewBox="0 0 226 33"
   version="1.1"
   id="svg11"
   sodipodi:docname="jc_logo_w_jetiks.svg"
   inkscape:version="0.92.1 r15371">
  <metadata
     id="metadata15">
    <rdf:RDF>
      <cc:Work
         rdf:about="">
        <dc:format>image/svg+xml</dc:format>
        <dc:type
           rdf:resource="http://purl.org/dc/dcmitype/StillImage" />
        <dc:title></dc:title>
      </cc:Work>
    </rdf:RDF>
  </metadata>
  <sodipodi:namedview
     pagecolor="#ffffff"
     bordercolor="#666666"
     borderopacity="1"
     objecttolerance="10"
     gridtolerance="10"
     guidetolerance="10"
     inkscape:pageopacity="0"
     inkscape:pageshadow="2"
     inkscape:window-width="1920"
     inkscape:window-height="1017"
     id="namedview13"
     showgrid="false"
     fit-margin-top="0"
     fit-margin-left="0"
     fit-margin-right="0"
     fit-margin-bottom="0"
     inkscape:zoom="4"
     inkscape:cx="58.045944"
     inkscape:cy="-48.126422"
     inkscape:window-x="-8"
     inkscape:window-y="-8"
     inkscape:window-maximized="1"
     inkscape:current-layer="svg11" />
  <defs
     id="defs3">
    <path
       id="c70ja"
       d="m 120.52,44.13 a 6.91,6.91 0 0 0 -1.83,4.86 c 0,1.97 0.61,3.63 1.83,4.93 a 6.14,6.14 0 0 0 4.67,1.96 c 2.03,0 3.8,-0.93 5.25,-2.76 l 0.32,-0.4 3.08,2.42 -0.27,0.41 a 9.58,9.58 0 0 1 -8.43,4.46 c -3.03,0 -5.64,-1.08 -7.75,-3.2 a 10.71,10.71 0 0 1 -3.17,-7.82 c 0,-3.07 1.07,-5.7 3.17,-7.8 a 10.6,10.6 0 0 1 7.75,-3.17 c 1.9,0 3.62,0.44 5.11,1.3 a 9.91,9.91 0 0 1 3.32,3.16 l 0.27,0.4 -3.08,2.47 -0.32,-0.41 c -1.43,-1.85 -3.2,-2.8 -5.25,-2.8 -1.88,0 -3.45,0.67 -4.67,1.99 z M 242,48.99 c 0,3.07 -1.08,5.7 -3.22,7.82 a 10.65,10.65 0 0 1 -7.75,3.2 10.68,10.68 0 0 1 -7.73,-3.22 10.68,10.68 0 0 1 -3.15,-7.8 c 0,-3.07 1.06,-5.7 3.15,-7.8 2.09,-2.1 4.7,-3.17 7.73,-3.17 3.01,0 5.62,1.07 7.75,3.17 A 10.58,10.58 0 0 1 242,49 Z m -15.57,4.93 a 6.02,6.02 0 0 0 4.6,1.96 c 1.82,0 3.37,-0.66 4.6,-1.96 a 6.85,6.85 0 0 0 1.86,-4.89 c 0,-1.97 -0.62,-3.62 -1.84,-4.92 a 6.19,6.19 0 0 0 -4.57,-2 c -1.86,0.02 -3.41,0.7 -4.63,2 a 6.95,6.95 0 0 0 -1.84,4.92 c 0,1.95 0.61,3.6 1.82,4.89 z M 65.6,38.55 h 4.24 v 14.01 c 0,2.53 -0.7,4.46 -2.09,5.73 -1.37,1.25 -3.2,1.89 -5.46,1.89 -1,0 -1.97,-0.13 -2.86,-0.38 l -0.42,-0.12 -0.02,-0.46 0.37,-3.55 0.53,0.07 c 0.76,0.1 1.4,0.14 1.96,0.14 2.59,0 3.75,-1.09 3.75,-3.51 z M 89.88,50.63 H 78.57 a 6.3,6.3 0 0 0 2,3.74 6.44,6.44 0 0 0 4.53,1.67 c 2.07,0 3.96,-0.85 5.62,-2.54 l 0.39,-0.4 2.48,2.9 -0.32,0.35 c -2.24,2.42 -5,3.65 -8.2,3.65 -3.08,0 -5.68,-1.06 -7.75,-3.14 a 10.64,10.64 0 0 1 -3.13,-7.79 c 0,-3.05 1.02,-5.66 3.04,-7.77 a 9.97,9.97 0 0 1 7.47,-3.2 9.18,9.18 0 0 1 9.37,8.6 H 89.9 a 4.8,4.8 0 0 0 -1.5,-3.27 5.3,5.3 0 0 0 -3.77,-1.4 c -1.52,0 -2.8,0.48 -3.91,1.45 A 6.4,6.4 0 0 0 78.75,46.7 H 89.9 Z m 127.18,5.25 0.57,-0.06 v 3.68 l -0.42,0.08 c -1.2,0.25 -2.26,0.37 -3.17,0.37 -2.36,0 -4.22,-0.6 -5.55,-1.8 -1.33,-1.2 -2,-3.04 -2,-5.47 V 42.31 h -4.6 v -0.18 l 0.15,-0.14 8.43,-9 h 0.34 v 5.56 h 6.15 v 3.76 h -6.15 v 9.99 c 0,1.36 0.36,2.33 1.06,2.89 0.7,0.55 1.74,0.83 3.1,0.83 0.49,0 1.2,-0.05 2.09,-0.14 z m -105.94,0 0.57,-0.06 v 3.68 l -0.42,0.08 c -1.2,0.25 -2.26,0.37 -3.17,0.37 -2.36,0 -4.22,-0.6 -5.55,-1.8 -1.32,-1.2 -2,-3.04 -2,-5.47 V 42.31 h -4.6 v -0.18 l 0.15,-0.14 8.43,-9 h 0.34 v 5.56 h 6.15 v 3.76 h -6.15 v 9.99 c 0,1.36 0.36,2.33 1.06,2.89 0.7,0.55 1.74,0.83 3.1,0.83 0.5,0 1.2,-0.05 2.09,-0.14 z m 31.63,-15.92 7.52,-1.47 v 4.09 l -7.52,1.4 v 15.55 h -4.31 V 38.5 h 4.3 z m 57.85,9.05 c 0,6.07 -4.64,11 -10.34,11 -3.64,0 -6.32,-2 -8.06,-4.66 V 66 h -4.38 V 38.5 h 4.38 v 4.1 a 9.75,9.75 0 0 1 8.06,-4.58 c 5.7,0 10.34,4.93 10.34,11 z m -4.62,0.02 c 0,-3.82 -2.82,-6.93 -6.27,-6.93 -3.46,0 -6.27,3.11 -6.27,6.93 0,3.82 2.81,6.93 6.27,6.93 3.45,0 6.27,-3.1 6.27,-6.93 z m -37.16,10.5 -5.31,-21.04 h 4.65 l 4.18,17.47 0.92,3.4 6.58,-20.87 h 4.36 L 165.67,66 h -4.57 l 2.12,-6.46 z"
       inkscape:connector-curvature="0" />
  </defs>
  <g
     id="g9"
     transform="matrix(0.99969706,0,0,0.99969706,42.049338,-1.9893955)">
    <g
       transform="translate(-58,-31)"
       id="g7">
      <use
         xlink:href="#c70ja"
         id="use5"
         x="0"
         y="0"
         width="100%"
         height="100%" />
    </g>
  </g>
  <g
     id="g6578"
     transform="matrix(0.86842106,0,0,0.86842106,0,1.4584668e-6)">
    <g
       transform="matrix(0.19786672,0,0,-0.19907326,22.047589,5.9006313)"
       id="g4632">
      <path
         inkscape:connector-curvature="0"
         id="path4634"
         style="fill:#000100;fill-opacity:1;fill-rule:nonzero;stroke:none"
         d="m 0,0 c 43.227,0 80.622,-33.621 80.622,-81.995 0,-48.373 -37.052,-74.103 -47.001,-79.249 0,0 -6.175,12.35 -33.621,12.007 -27.446,-0.343 -81.308,21.614 -77.191,77.878 C -73.074,-15.095 -28.818,0 0,0" />
    </g>
    <g
       transform="matrix(0.19786672,0,0,-0.19907326,15.749376,1.8780574)"
       id="g4636">
      <path
         inkscape:connector-curvature="0"
         id="path4638"
         style="fill:#000100;fill-opacity:1;fill-rule:nonzero;stroke:none"
         d="m 0,0 c 0,-5.21 -4.224,-9.434 -9.435,-9.434 -5.21,0 -9.434,4.224 -9.434,9.434 0,5.211 4.224,9.434 9.434,9.434 C -4.224,9.434 0,5.211 0,0" />
    </g>
    <g
       transform="matrix(0.19786672,0,0,-0.19907326,31.160839,1.8780574)"
       id="g4640">
      <path
         inkscape:connector-curvature="0"
         id="path4642"
         style="fill:#000100;fill-opacity:1;fill-rule:nonzero;stroke:none"
         d="m 0,0 c 0,-5.21 -4.224,-9.434 -9.435,-9.434 -5.21,0 -9.434,4.224 -9.434,9.434 0,5.211 4.224,9.434 9.434,9.434 C -4.224,9.434 0,5.211 0,0" />
    </g>
    <g
       transform="matrix(0.19786672,0,0,-0.19907326,18.932738,13.691463)"
       id="g4644">
      <path
         inkscape:connector-curvature="0"
         id="path4646"
         style="fill:#ffffff;fill-opacity:1;fill-rule:nonzero;stroke:none"
         d="m 0,0 c 0,3.941 -3.195,7.136 -7.136,7.136 -3.941,0 -7.136,-3.195 -7.136,-7.136 0,-3.941 3.195,-7.136 7.136,-7.136 C -3.195,-7.136 0,-3.941 0,0" />
    </g>
    <g
       transform="matrix(0.19786672,0,0,-0.19907326,24.916758,13.691463)"
       id="g4648">
      <path
         inkscape:connector-curvature="0"
         id="path4650"
         style="fill:#ffffff;fill-opacity:1;fill-rule:nonzero;stroke:none"
         d="m 0,0 c 0,3.941 -3.195,7.136 -7.136,7.136 -3.941,0 -7.136,-3.195 -7.136,-7.136 0,-3.941 3.195,-7.136 7.136,-7.136 C -3.195,-7.136 0,-3.941 0,0" />
    </g>
    <g
       transform="matrix(0.19786672,0,0,-0.19907326,18.932738,15.122183)"
       id="g4652">
      <path
         inkscape:connector-curvature="0"
         id="path4654"
         style="fill:#000100;fill-opacity:1;fill-rule:nonzero;stroke:none"
         d="m 0,0 c 0,2.387 -3.195,4.323 -7.136,4.323 -3.941,0 -7.136,-1.936 -7.136,-4.323 0,-2.387 3.195,-4.323 7.136,-4.323 C -3.195,-4.323 0,-2.387 0,0" />
    </g>
    <g
       transform="matrix(0.19786672,0,0,-0.19907326,24.916758,15.122183)"
       id="g4656">
      <path
         inkscape:connector-curvature="0"
         id="path4658"
         style="fill:#000100;fill-opacity:1;fill-rule:nonzero;stroke:none"
         d="m 0,0 c 0,2.387 -3.195,4.323 -7.136,4.323 -3.941,0 -7.136,-1.936 -7.136,-4.323 0,-2.387 3.195,-4.323 7.136,-4.323 C -3.195,-4.323 0,-2.387 0,0" />
    </g>
    <g
       transform="matrix(0.19786672,0,0,-0.19907326,8.6074978,22.075733)"
       id="g4664">
      <path
         inkscape:connector-curvature="0"
         id="path4666"
         style="fill:#000100;fill-opacity:1;fill-rule:nonzero;stroke:none"
         d="m 0,0 c -0.11,-0.041 -0.224,-0.075 -0.343,-0.099 -15.973,-3.231 -27.453,-1.026 -34.12,6.556 -12.058,13.711 -3.444,39.605 -3.072,40.701 0.396,1.162 1.658,1.785 2.82,1.389 1.163,-0.395 1.785,-1.657 1.391,-2.819 -0.083,-0.245 -8.159,-24.567 2.207,-36.341 C -25.577,3.094 -15.52,1.369 -1.225,4.26 -0.021,4.504 1.152,3.726 1.396,2.522 1.615,1.437 1.004,0.377 0,0" />
    </g>
    <g
       transform="matrix(0.19786672,0,0,-0.19907326,1.8008796,13.436091)"
       id="g4668">
      <path
         inkscape:connector-curvature="0"
         id="path4670"
         style="fill:#000100;fill-opacity:1;fill-rule:nonzero;stroke:none"
         d="m 0,0 c 0,0 3.262,4.875 3.41,8.833 0.149,3.958 -0.898,5.319 -2.508,5.357 -1.61,0.037 -3.606,-2.854 -3.545,-5.964 0,0 -2.84,5.595 -5.792,3.238 -2.562,-2.046 2.793,-9.282 7.058,-11.324" />
    </g>
    <g
       transform="matrix(0.19786672,0,0,-0.19907326,1.8627504,13.426875)"
       id="g4672">
      <path
         inkscape:connector-curvature="0"
         id="path4674"
         style="fill:#000100;fill-opacity:1;fill-rule:nonzero;stroke:none"
         d="M 0,0 C 0,0 4.587,-0.05 7.781,3.738 10.335,6.766 10.5,9.064 9.142,9.929 7.451,11.006 3.717,9.051 1.775,6.621 c 0,0 1.721,7.285 -1.556,7.18 -3.277,-0.104 -3.785,-8.923 -1.811,-13.22" />
    </g>
    <g
       transform="matrix(0.19786672,0,0,-0.19907326,22.885182,31.28074)"
       id="g4676">
      <path
         inkscape:connector-curvature="0"
         id="path4678"
         style="fill:#ffffff;fill-opacity:1;fill-rule:nonzero;stroke:none"
         d="m 0,0 c -1.095,0.086 -1.937,1.022 -1.894,2.13 0.043,1.136 0.998,2.022 2.135,1.979 22.542,-0.854 39.149,5.734 49.357,19.581 7.586,10.29 8.616,20.868 8.626,20.973 0.101,1.125 1.088,1.956 2.21,1.868 0.008,-10e-4 0.016,-10e-4 0.024,-0.002 1.133,-0.102 1.968,-1.103 1.866,-2.235 C 62.282,43.829 57.472,-2.179 0.084,-0.005 0.056,-0.004 0.028,-0.002 0,0" />
    </g>
    <g
       transform="matrix(0.19786672,0,0,-0.19907326,23.122622,30.568795)"
       id="g4680">
      <path
         inkscape:connector-curvature="0"
         id="path4682"
         style="fill:#ffffff;fill-opacity:1;fill-rule:nonzero;stroke:none"
         d="m 0,0 c 0,0 -4.372,2.752 -8.039,2.81 -3.666,0.059 -4.889,-0.876 -5.152,-2.807 -0.202,-1.477 1.76,-3.281 4.638,-3.163 0,0 -3.991,-3.197 -1.928,-5.423 2.062,-2.227 8.533,2.771 10.338,6.759" />
    </g>
    <g
       transform="matrix(0.19786672,0,0,-0.19907326,25.209383,18.689634)"
       id="g4684">
      <path
         inkscape:connector-curvature="0"
         id="path4686"
         style="fill:#ffffff;fill-opacity:1;fill-rule:nonzero;stroke:none"
         d="m 0,0 -1.228,0.005 c -29.263,-3.863 -36.404,-0.453 -42.145,0.174 l -3.066,0.012 c -1.067,0.005 -1.922,-0.902 -1.844,-1.966 0.954,-12.961 11.745,-23.206 24.96,-23.261 13.215,-0.054 24.09,10.102 25.15,23.055 C 1.914,-0.918 1.067,-0.004 0,0" />
    </g>
  </g>
</svg>
