<svg xmlns="http://www.w3.org/2000/svg" width="300" height="300" viewBox="0 0 79.375 79.375"><path d="M39.335 3.724c16.873 0 31.47 13.268 31.47 32.359 0 19.09-14.463 29.245-18.347 31.276 0 0-2.41-4.874-13.123-4.739-10.714.136-31.738-8.53-30.131-30.734C10.81 9.68 28.086 3.724 39.334 3.724M19.078 3.724c0 2.056-1.649 3.723-3.683 3.723-2.033 0-3.682-1.667-3.682-3.723C11.713 1.667 13.362 0 15.395 0c2.034 0 3.683 1.667 3.683 3.724M66.504 3.724c0 2.056-1.649 3.723-3.683 3.723-2.033 0-3.682-1.667-3.682-3.723C59.139 1.667 60.788 0 62.82 0c2.034 0 3.683 1.667 3.683 3.724" fill="#000100"/><path d="M32.367 19.168c0-1.966-1.577-3.56-3.521-3.56-1.945 0-3.522 1.594-3.522 3.56 0 1.967 1.577 3.56 3.522 3.56 1.944 0 3.52-1.593 3.52-3.56M47.29 19.168c0-1.966-1.578-3.56-3.522-3.56-1.944 0-3.521 1.594-3.521 3.56 0 1.967 1.577 3.56 3.52 3.56 1.945 0 3.522-1.593 3.522-3.56" fill="#fff"/><path d="M53.63 78.529c0 .467-5.56.846-12.42.846s-12.421-.379-12.421-.846c0-.467 5.56-.846 12.42-.846s12.421.379 12.421.846M12.583 36.186a.87.87 0 0 1-.139-.007C6.136 35.347 2.174 33.058.67 29.376c-2.723-6.66 3.728-15.23 4.003-15.592a.863.863 0 0 1 1.218-.159c.38.296.45.847.158 1.23-.062.082-6.115 8.133-3.773 13.853 1.252 3.058 4.748 4.986 10.394 5.73.475.063.81.503.748.984a.872.872 0 0 1-.834.764" fill="#000100"/><path d="M5.507 14.831s-.227-2.024-1.093-3.283c-.866-1.26-1.463-1.524-1.912-1.289-.447.236-.33 1.446.4 2.408 0 0-2.057-1.311-2.322-.122C.35 13.578 3.468 15.016 5.1 15" fill="#000100"/><path d="M5.582 14.769s1.262-.69 1.266-2.363c.003-1.339-.478-2.082-1.047-2.144-.708-.077-1.279 1.108-1.251 2.165 0 0-1.2-2.54-2.07-2.004-.87.536 1.011 3.37 2.534 4.409M66.088 36.706a.863.863 0 0 0 .14.002c6.346-.444 10.437-2.486 12.16-6.069 3.118-6.48-2.807-15.43-3.06-15.808a.863.863 0 0 0-1.206-.233.884.884 0 0 0-.231 1.218c.056.085 5.616 8.493 2.935 14.059-1.433 2.975-5.039 4.684-10.718 5.082a.874.874 0 0 0-.807.936c.03.436.37.775.787.813" fill="#000100"/><path d="M74.398 15.837s.39-1.96 1.337-3.158 1.549-1.437 1.963-1.195c.415.242.198 1.413-.59 2.327 0 0 2.106-1.214 2.263-.051.136 1.01-3.01 2.316-4.591 2.251" fill="#000100"/><path d="M74.331 15.774s-1.167-.706-1.03-2.332c.11-1.3.64-2.008 1.197-2.051.693-.054 1.147 1.113 1.032 2.14 0 0 1.378-2.433 2.176-1.887.8.546-1.265 3.243-2.83 4.208" fill="#000100"/><path d="M24.955 37.767l-.003-.008c-.742-1.913.199-4.092 2.09-4.843l11.789-4.675c1.892-.75 4.047.2 4.79 2.114l.003.008c.742 1.913-.2 4.093-2.091 4.843L29.745 39.88c-1.892.75-4.047-.2-4.79-2.114" fill="#fff"/><path d="M33.807 32.72a.732.732 0 0 1-.952-.42.745.745 0 0 1 .416-.962.731.731 0 0 1 .951.42.745.745 0 0 1-.415.962M34.611 34.793a.732.732 0 0 1-.951-.42.745.745 0 0 1 .415-.962.731.731 0 0 1 .952.42.745.745 0 0 1-.416.962M35.694 31.978a.732.732 0 0 1-.952-.42.745.745 0 0 1 .415-.962.731.731 0 0 1 .952.42.745.745 0 0 1-.415.962M36.498 34.05a.732.732 0 0 1-.951-.42.745.745 0 0 1 .415-.961.731.731 0 0 1 .952.42.745.745 0 0 1-.416.962M31.914 33.47a.732.732 0 0 1-.952-.42.745.745 0 0 1 .416-.961.731.731 0 0 1 .951.42.745.745 0 0 1-.415.962M32.718 35.544a.732.732 0 0 1-.951-.42.745.745 0 0 1 .415-.962.731.731 0 0 1 .952.42.745.745 0 0 1-.416.962M35.536 36.776a.732.732 0 0 1-.951-.42.745.745 0 0 1 .415-.962.731.731 0 0 1 .952.42.745.745 0 0 1-.416.962M37.423 36.033a.732.732 0 0 1-.951-.42.745.745 0 0 1 .415-.962.731.731 0 0 1 .952.42.745.745 0 0 1-.416.962M33.643 37.527a.732.732 0 0 1-.951-.42.745.745 0 0 1 .415-.962.731.731 0 0 1 .952.42.745.745 0 0 1-.416.962" fill="#000100"/></svg>