<?xml version="1.0" encoding="UTF-8" standalone="no"?>
<!-- Created with Inkscape (http://www.inkscape.org/) -->

<svg
   xmlns:dc="http://purl.org/dc/elements/1.1/"
   xmlns:cc="http://creativecommons.org/ns#"
   xmlns:rdf="http://www.w3.org/1999/02/22-rdf-syntax-ns#"
   xmlns:svg="http://www.w3.org/2000/svg"
   xmlns="http://www.w3.org/2000/svg"
   xmlns:sodipodi="http://sodipodi.sourceforge.net/DTD/sodipodi-0.dtd"
   xmlns:inkscape="http://www.inkscape.org/namespaces/inkscape"
   width="318"
   height="366"
   viewBox="0 0 84.1375 96.837496"
   version="1.1"
   id="svg1471"
   sodipodi:docname="jetiks.svg"
   inkscape:version="0.92.1 r15371">
  <defs
     id="defs1465" />
  <sodipodi:namedview
     id="base"
     pagecolor="#ffffff"
     bordercolor="#666666"
     borderopacity="1.0"
     inkscape:pageopacity="0.0"
     inkscape:pageshadow="2"
     inkscape:zoom="2.8"
     inkscape:cx="304.66905"
     inkscape:cy="209.74931"
     inkscape:document-units="mm"
     inkscape:current-layer="layer1"
     showgrid="false"
     fit-margin-top="0"
     fit-margin-left="0"
     fit-margin-right="0"
     fit-margin-bottom="0"
     units="px"
     inkscape:window-width="1920"
     inkscape:window-height="1057"
     inkscape:window-x="1912"
     inkscape:window-y="-8"
     inkscape:window-maximized="1" />
  <metadata
     id="metadata1468">
    <rdf:RDF>
      <cc:Work
         rdf:about="">
        <dc:format>image/svg+xml</dc:format>
        <dc:type
           rdf:resource="http://purl.org/dc/dcmitype/StillImage" />
        <dc:title></dc:title>
      </cc:Work>
    </rdf:RDF>
  </metadata>
  <g
     inkscape:label="Layer 1"
     inkscape:groupmode="layer"
     id="layer1"
     transform="translate(-56.083118,13.285031)">
    <g
       id="g150"
       transform="matrix(0.43752086,0,0,-0.43752086,104.96815,-0.12611468)">
      <path
         d="m 0,0 c 43.227,0 80.622,-33.621 80.622,-81.995 0,-48.373 -37.052,-74.103 -47.001,-79.249 0,0 -6.175,12.35 -33.621,12.007 -27.446,-0.343 -81.308,21.614 -77.191,77.878 C -73.074,-15.095 -28.818,0 0,0"
         style="fill:#000100;fill-opacity:1;fill-rule:nonzero;stroke:none"
         id="path152"
         inkscape:connector-curvature="0" />
    </g>
    <g
       id="g154"
       transform="matrix(0.43752086,0,0,-0.43752086,91.041608,-8.9668802)">
      <path
         d="m 0,0 c 0,-5.21 -4.224,-9.434 -9.435,-9.434 -5.21,0 -9.434,4.224 -9.434,9.434 0,5.211 4.224,9.434 9.434,9.434 C -4.224,9.434 0,5.211 0,0"
         style="fill:#000100;fill-opacity:1;fill-rule:nonzero;stroke:none"
         id="path156"
         inkscape:connector-curvature="0" />
    </g>
    <g
       id="g158"
       transform="matrix(0.43752086,0,0,-0.43752086,125.11927,-8.9668802)">
      <path
         d="m 0,0 c 0,-5.21 -4.224,-9.434 -9.435,-9.434 -5.21,0 -9.434,4.224 -9.434,9.434 0,5.211 4.224,9.434 9.434,9.434 C -4.224,9.434 0,5.211 0,0"
         style="fill:#000100;fill-opacity:1;fill-rule:nonzero;stroke:none"
         id="path160"
         inkscape:connector-curvature="0" />
    </g>
    <g
       id="g162"
       transform="matrix(0.43752086,0,0,-0.43752086,98.080619,16.996483)">
      <path
         d="m 0,0 c 0,3.941 -3.195,7.136 -7.136,7.136 -3.941,0 -7.136,-3.195 -7.136,-7.136 0,-3.941 3.195,-7.136 7.136,-7.136 C -3.195,-7.136 0,-3.941 0,0"
         style="fill:#ffffff;fill-opacity:1;fill-rule:nonzero;stroke:none"
         id="path164"
         inkscape:connector-curvature="0" />
    </g>
    <g
       id="g166"
       transform="matrix(0.43752086,0,0,-0.43752086,111.31243,16.996483)">
      <path
         d="m 0,0 c 0,3.941 -3.195,7.136 -7.136,7.136 -3.941,0 -7.136,-3.195 -7.136,-7.136 0,-3.941 3.195,-7.136 7.136,-7.136 C -3.195,-7.136 0,-3.941 0,0"
         style="fill:#ffffff;fill-opacity:1;fill-rule:nonzero;stroke:none"
         id="path168"
         inkscape:connector-curvature="0" />
    </g>
    <g
       id="g170"
       transform="matrix(0.43752086,0,0,-0.43752086,98.080619,20.140903)">
      <path
         d="m 0,0 c 0,2.387 -3.195,4.323 -7.136,4.323 -3.941,0 -7.136,-1.936 -7.136,-4.323 0,-2.387 3.195,-4.323 7.136,-4.323 C -3.195,-4.323 0,-2.387 0,0"
         style="fill:#000100;fill-opacity:1;fill-rule:nonzero;stroke:none"
         id="path172"
         inkscape:connector-curvature="0" />
    </g>
    <g
       id="g174"
       transform="matrix(0.43752086,0,0,-0.43752086,111.31243,20.140903)">
      <path
         d="m 0,0 c 0,2.387 -3.195,4.323 -7.136,4.323 -3.941,0 -7.136,-1.936 -7.136,-4.323 0,-2.387 3.195,-4.323 7.136,-4.323 C -3.195,-4.323 0,-2.387 0,0"
         style="fill:#000100;fill-opacity:1;fill-rule:nonzero;stroke:none"
         id="path176"
         inkscape:connector-curvature="0" />
    </g>
    <g
       id="g178"
       transform="matrix(0.43752086,0,0,-0.43752086,120.99148,82.805003)">
      <path
         d="m 0,0 c 0,-1.184 -14.246,-2.144 -31.82,-2.144 -17.574,0 -31.82,0.96 -31.82,2.144 0,1.184 14.246,2.144 31.82,2.144 C -14.246,2.144 0,1.184 0,0"
         style="fill:#000100;fill-opacity:1;fill-rule:nonzero;stroke:none"
         id="path180"
         inkscape:connector-curvature="0" />
    </g>
    <g
       id="g182"
       transform="matrix(0.43752086,0,0,-0.43752086,75.249558,35.423332)">
      <path
         d="m 0,0 c -0.11,-0.041 -0.224,-0.075 -0.343,-0.099 -15.973,-3.231 -27.453,-1.026 -34.12,6.556 -12.058,13.711 -3.444,39.605 -3.072,40.701 0.396,1.162 1.658,1.785 2.82,1.389 1.163,-0.395 1.785,-1.657 1.391,-2.819 -0.083,-0.245 -8.159,-24.567 2.207,-36.341 C -25.577,3.094 -15.52,1.369 -1.225,4.26 -0.021,4.504 1.152,3.726 1.396,2.522 1.615,1.437 1.004,0.377 0,0"
         style="fill:#000100;fill-opacity:1;fill-rule:nonzero;stroke:none"
         id="path184"
         inkscape:connector-curvature="0" />
    </g>
    <g
       id="g186"
       transform="matrix(0.43752086,0,0,-0.43752086,60.19884,16.435233)">
      <path
         d="m 0,0 c 0,0 3.262,4.875 3.41,8.833 0.149,3.958 -0.898,5.319 -2.508,5.357 -1.61,0.037 -3.606,-2.854 -3.545,-5.964 0,0 -2.84,5.595 -5.792,3.238 -2.562,-2.046 2.793,-9.282 7.058,-11.324"
         style="fill:#000100;fill-opacity:1;fill-rule:nonzero;stroke:none"
         id="path188"
         inkscape:connector-curvature="0" />
    </g>
    <g
       id="g190"
       transform="matrix(0.43752086,0,0,-0.43752086,60.335651,16.414972)">
      <path
         d="M 0,0 C 0,0 4.587,-0.05 7.781,3.738 10.335,6.766 10.5,9.064 9.142,9.929 7.451,11.006 3.717,9.051 1.775,6.621 c 0,0 1.721,7.285 -1.556,7.18 -3.277,-0.104 -3.785,-8.923 -1.811,-13.22"
         style="fill:#000100;fill-opacity:1;fill-rule:nonzero;stroke:none"
         id="path192"
         inkscape:connector-curvature="0" />
    </g>
    <g
       id="g194"
       transform="matrix(0.43752086,0,0,-0.43752086,106.82023,55.65399)">
      <path
         d="m 0,0 c -1.095,0.086 -1.937,1.022 -1.894,2.13 0.043,1.136 0.998,2.022 2.135,1.979 22.542,-0.854 39.149,5.734 49.357,19.581 7.586,10.29 8.616,20.868 8.626,20.973 0.101,1.125 1.088,1.956 2.21,1.868 0.008,-10e-4 0.016,-10e-4 0.024,-0.002 1.133,-0.102 1.968,-1.103 1.866,-2.235 C 62.282,43.829 57.472,-2.179 0.084,-0.005 0.056,-0.004 0.028,-0.002 0,0"
         style="fill:#ffffff;fill-opacity:1;fill-rule:nonzero;stroke:none"
         id="path196"
         inkscape:connector-curvature="0" />
    </g>
    <g
       id="g198"
       transform="matrix(0.43752086,0,0,-0.43752086,107.34526,54.089284)">
      <path
         d="m 0,0 c 0,0 -4.372,2.752 -8.039,2.81 -3.666,0.059 -4.889,-0.876 -5.152,-2.807 -0.202,-1.477 1.76,-3.281 4.638,-3.163 0,0 -3.991,-3.197 -1.928,-5.423 2.062,-2.227 8.533,2.771 10.338,6.759"
         style="fill:#ffffff;fill-opacity:1;fill-rule:nonzero;stroke:none"
         id="path200"
         inkscape:connector-curvature="0" />
    </g>
    <g
       id="g202"
       transform="matrix(0.43752086,0,0,-0.43752086,111.95948,27.981407)">
      <path
         d="m 0,0 -1.228,0.005 c -29.263,-3.863 -36.404,-0.453 -42.145,0.174 l -3.066,0.012 c -1.067,0.005 -1.922,-0.902 -1.844,-1.966 0.954,-12.961 11.745,-23.206 24.96,-23.261 13.215,-0.054 24.09,10.102 25.15,23.055 C 1.914,-0.918 1.067,-0.004 0,0"
         style="fill:#ffffff;fill-opacity:1;fill-rule:nonzero;stroke:none"
         id="path204"
         inkscape:connector-curvature="0" />
    </g>
  </g>
</svg>
