<?xml version="1.0" standalone="no"?>
<!DOCTYPE svg PUBLIC "-//W3C//DTD SVG 20010904//EN"
 "http://www.w3.org/TR/2001/REC-SVG-20010904/DTD/svg10.dtd">
<svg version="1.0" xmlns="http://www.w3.org/2000/svg"
 width="537.000000pt" height="471.000000pt" viewBox="0 0 537.000000 471.000000"
 preserveAspectRatio="xMidYMid meet">

<g transform="translate(0.000000,471.000000) scale(0.100000,-0.100000)"
fill="#53ae94" stroke="none">
<path d="M495 3669 c-270 -572 -491 -1048 -493 -1057 -4 -22 2662 -2615 2683
-2610 12 3 2658 2563 2678 2591 6 8 -175 401 -486 1062 l-496 1050 -1698 2
-1698 3 -490 -1041z m3505 86 l0 -315 -470 0 -470 0 0 -204 0 -203 113 -7
c356 -21 736 -84 948 -157 232 -79 323 -187 239 -282 -109 -125 -560 -241
-1070 -277 -91 -6 -180 -14 -197 -16 l-33 -5 0 -654 0 -655 -340 0 -340 0 0
654 0 655 -42 5 c-24 2 -128 11 -233 20 -826 69 -1262 280 -973 470 171 113
572 201 1076 237 l172 13 0 203 0 203 -470 0 -470 0 0 315 0 315 1280 0 1280
0 0 -315z"/>
<path d="M2245 2973 c-597 -38 -1035 -156 -1035 -277 0 -248 1482 -383 2475
-225 328 52 545 140 545 220 0 32 -12 49 -56 80 -141 97 -485 166 -1021 204
l-93 7 0 -229 0 -230 -82 -6 c-107 -9 -389 -9 -506 -1 l-92 7 0 228 0 229 -42
-2 c-24 -1 -65 -3 -93 -5z"/>
</g>
</svg>
