<?xml version="1.0" encoding="utf-8"?>
<!-- Generator: Adobe Illustrator 22.0.1, SVG Export Plug-In . SVG Version: 6.00 Build 0)  -->
<svg version="1.1" id="Слой_1" xmlns="http://www.w3.org/2000/svg" xmlns:xlink="http://www.w3.org/1999/xlink" x="0px" y="0px"
	 viewBox="0 0 230 210" style="enable-background:new 0 0 230 210;" xml:space="preserve">
<style type="text/css">
	.st0{fill:#F7794D;}
</style>
<g>
	<path d="M166.4,53.5c13.7,0,24.8,11.1,24.8,24.8c0,1,0.9,1.9,1.9,1.9s1.9-0.9,1.9-1.9c0-15.8-12.8-28.6-28.6-28.6
		c-15.2,0-27.7,11.9-28.6,26.9c-9.7-16.1-27.3-26.9-47.5-26.9C59.8,49.7,35,74.5,35,105s24.8,55.3,55.3,55.3c19.3,0,36.4-10,46.3-25
		c1.8,14.1,13.8,25,28.4,25c15.8,0,28.6-12.8,28.6-28.6c0-12-7.3-21.6-20.1-26.2c-1.9-0.7-3.8-1.3-5.6-1.9
		c-4.3-1.4-8.3-2.8-12.1-4.7c-9.5-4.9-14.3-11.9-14.3-20.6C141.6,64.6,152.7,53.5,166.4,53.5z M90.3,156.5
		c-28.4,0-51.5-23.1-51.5-51.5s23.1-51.5,51.5-51.5s51.5,23.1,51.5,51.5c0,5.6-0.9,10.9-2.5,16c-0.3,0.8-0.6,1.7-0.9,2.4
		C131.1,142.8,112.3,156.5,90.3,156.5z M154.1,102.2c4,2.1,8.2,3.5,12.6,4.9c1.8,0.6,3.7,1.2,5.5,1.9c11.2,4,17.6,12.3,17.6,22.7
		c0,13.7-11.1,24.8-24.8,24.8c-13.6,0-24.7-11-24.8-24.7c0.1-0.7,0.7-3.6,1.9-7.2c0.3-0.8,0.6-1.6,0.9-2.5c0-0.1,0.1-0.3,0.1-0.4
		c0-0.1,0-0.2,0.1-0.2c1.7-5.2,2.5-10.8,2.5-16.6c0-3.2-0.3-6.4-0.8-9.5C147.3,98.1,150.4,100.3,154.1,102.2z"/>
	<g>
		<g id="settings_9_">
			<g>
				<path class="st0" d="M95.2,129.4h-9.5c-1.6,0-3-1.2-3.1-2.7l-0.8-5.1c-0.9-0.4-1.8-0.9-2.6-1.5l-5,2c0,0-0.1,0-0.1,0
					c-1.3,0.4-2.5,0.2-3.4-0.7c-0.1-0.1-0.2-0.3-0.3-0.4l-4.7-8.3c0,0,0-0.1,0-0.1c-0.6-1.3-0.4-2.6,0.6-3.6c0,0,0.1-0.1,0.1-0.1
					l4.1-3.3c-0.1-0.5-0.1-1-0.1-1.6c0-0.6,0.1-1.1,0.1-1.5l-4.1-3.1c-0.1-0.1-0.1-0.1-0.2-0.2c-0.4-0.4-0.8-1-1-1.5
					c-0.3-0.8-0.2-1.7,0.2-2.3l4.7-8.2c0.1-0.1,0.2-0.3,0.3-0.4c1.3-1.3,2.7-1.2,3.6-0.9c0,0,0.1,0,0.1,0l4.7,2
					c0.8-0.6,1.6-1.1,2.5-1.6l0.8-5.3c0.1-1.5,1.7-2.7,3.1-2.7h9.5c0.9,0,1.8,0.5,2.4,1.2c0.4,0.6,0.6,1.2,0.5,1.9l0.8,4.9
					c0.9,0.4,1.8,0.9,2.6,1.5l5-2c0,0,0.1,0,0.1,0c1.3-0.4,2.5-0.2,3.4,0.7c0.1,0.1,0.2,0.3,0.3,0.4l4.7,8.3c0,0,0,0.1,0,0.1
					c0.6,1.3,0.4,2.6-0.6,3.6c0,0-0.1,0.1-0.1,0.1l-4.1,3.3c0.1,0.5,0.1,1,0.1,1.6c0,0.6-0.1,1.1-0.1,1.5l4.5,3.1
					c0.5,0.3,0.9,0.8,1.1,1.4c0.3,0.8,0.2,1.7-0.2,2.5c0,0,0,0.1,0,0.1l-4.7,8.3c-0.3,0.6-1,1.2-1.7,1.4c-0.7,0.2-1.5,0.2-2.2-0.1
					l-4.9-2c-0.8,0.6-1.7,1-2.6,1.5l-0.8,5.1C98.1,128.3,96.6,129.4,95.2,129.4z M94.5,126.6C94.5,126.6,94.5,126.6,94.5,126.6
					C94.5,126.6,94.5,126.6,94.5,126.6z M86.3,125.6h8.3l0.8-5.5c0.1-0.6,0.5-1.1,1-1.4c1.4-0.7,2.7-1.3,3.7-2.2
					c0.5-0.4,1.3-0.5,1.9-0.3l5.3,2.1l4.1-7.1l-4.8-3.3c-0.5-0.4-0.8-0.9-0.8-1.6c0-0.5,0.1-0.9,0.1-1.3c0.1-0.4,0.1-0.7,0.1-1.1
					c0-0.8,0-1.4-0.1-1.8c-0.3-0.8,0-1.6,0.6-2.1l4.5-3.6l-4-7l-5.5,2.2c-0.6,0.3-1.4,0.1-1.9-0.3c-1-0.8-2.3-1.5-3.7-2.2
					c-0.6-0.3-0.9-0.8-1-1.4l-0.9-5.8h-8l-0.9,5.7c-0.1,0.7-0.6,1.3-1.3,1.5c-0.9,0.3-1.7,0.9-2.7,1.6c-0.3,0.2-0.6,0.4-0.9,0.6
					c-0.5,0.4-1.2,0.4-1.8,0.2l-5.3-2.2l-4.1,7.1l4.6,3.5c0.5,0.4,0.7,0.9,0.7,1.5c0,0.5-0.1,0.9-0.1,1.3c-0.1,0.4-0.1,0.7-0.1,1.1
					c0,0.8,0,1.4,0.1,1.8c0.3,0.8,0,1.6-0.6,2.1l-4.4,3.6l4,7l5.4-2.2c0.6-0.3,1.4-0.1,1.9,0.3c1,0.8,2.3,1.5,3.7,2.2
					c0.6,0.3,0.9,0.8,1,1.4L86.3,125.6z M112.4,111.9C112.4,111.9,112.4,111.9,112.4,111.9C112.4,111.9,112.4,111.9,112.4,111.9z
					 M68.5,97.8C68.5,97.8,68.5,97.8,68.5,97.8C68.5,97.8,68.5,97.8,68.5,97.8z M68.5,97.8C68.5,97.8,68.5,97.8,68.5,97.8
					C68.5,97.8,68.5,97.8,68.5,97.8z M68.9,96.4L68.9,96.4C68.9,96.4,68.9,96.4,68.9,96.4L68.9,96.4z M86.2,81.2
					C86.2,81.2,86.2,81.2,86.2,81.2C86.2,81.2,86.2,81.2,86.2,81.2z M90.2,114.2c-5.5,0-10.2-4.7-10.2-10.2s4.7-10.2,10.2-10.2
					s10.2,4.7,10.2,10.2S95.7,114.2,90.2,114.2z M90.2,97.6c-3.5,0-6.4,2.9-6.4,6.4s2.9,6.4,6.4,6.4s6.4-2.9,6.4-6.4
					S93.7,97.6,90.2,97.6z"/>
			</g>
		</g>
	</g>
</g>
</svg>
