<?xml version="1.0" encoding="utf-8"?>
<!-- Generator: Adobe Illustrator 22.0.1, SVG Export Plug-In . SVG Version: 6.00 Build 0)  -->
<svg version="1.1" id="Слой_1" xmlns="http://www.w3.org/2000/svg" xmlns:xlink="http://www.w3.org/1999/xlink" x="0px" y="0px"
	 viewBox="0 0 230 210" style="enable-background:new 0 0 230 210;" xml:space="preserve">
<style type="text/css">
	.st0{fill:#F7794D;}
</style>
<g>
	<path d="M177,94.6c-3.4-16.6-13-30.8-27.1-40.1c-14.1-9.3-31-12.6-47.6-9.2c-5.5,1.1-10.7,2.9-15.6,5.4l0.4-9.3c0-1-0.8-1.9-1.8-2
		c-1,0-1.9,0.8-2,1.8l-0.5,12.6c0,0,0,0,0,0c0,0.2,0,0.3,0,0.5c0,0,0,0.1,0,0.1c0,0.1,0.1,0.2,0.1,0.3c0,0,0,0.1,0,0.1
		c0.1,0.1,0.2,0.3,0.3,0.4c0,0,0,0,0,0c0.1,0.1,0.2,0.2,0.2,0.2l9,6.5c0.3,0.2,0.7,0.4,1.1,0.4c0.6,0,1.2-0.3,1.5-0.8
		c0.6-0.9,0.4-2-0.4-2.7l-6.5-4.7c4.7-2.4,9.7-4.1,14.8-5.1c15.6-3.2,31.4-0.1,44.7,8.6c13.3,8.8,22.3,22.1,25.5,37.7
		c3.2,15.6,0.1,31.4-8.6,44.7c-8.8,13.3-22.1,22.3-37.7,25.5c-32.1,6.6-63.6-14.2-70.2-46.3c-1.4-7.1-1.6-14.2-0.5-21.3
		c0.2-1-0.5-2-1.6-2.2c-1-0.2-2,0.5-2.2,1.6c-1.2,7.5-1,15.1,0.5,22.7c6.1,29.9,32.6,50.6,62,50.6c4.2,0,8.4-0.4,12.7-1.3
		c16.6-3.4,30.8-13,40.1-27.1S180.4,111.1,177,94.6z"/>
	<g>
		<g>
			<path class="st0" d="M122.4,111.6v3.8h3.8v-3.8H122.4z M144.2,80h-38.8c-1.1,0-1.9,0.9-1.9,1.9v11.5h3.8v-9.6h35v27.9h-9.6v3.8
				h11.5c1,0,1.9-0.9,1.9-1.9V81.9C146.1,80.8,145.3,80,144.2,80z M103.5,99.9v3.8h3.8v-3.8H103.5z"/>
		</g>
		<g>
			<path class="st0" d="M134.7,89.5H95.9c-1.1,0-1.9,0.9-1.9,1.9v12.3h3.8V93.3h35v27.9h-10.4v3.8h12.3c1,0,1.9-0.9,1.9-1.9V91.4
				C136.6,90.4,135.7,89.5,134.7,89.5z"/>
		</g>
		<g>
			<path class="st0" d="M124.3,99.9H85.5c-1,0-1.9,0.8-1.9,1.9v31.7c0,1,0.9,1.9,1.9,1.9h38.8c1.1,0,1.9-0.8,1.9-1.9v-31.7
				C126.2,100.8,125.3,99.9,124.3,99.9z M122.4,131.6h-35v-27.9h35V131.6z"/>
		</g>
	</g>
</g>
</svg>
